<?xml version="1.0" encoding="UTF-8" standalone="no"?>
<svg
   xmlns:dc="http://purl.org/dc/elements/1.1/"
   xmlns:cc="http://creativecommons.org/ns#"
   xmlns:rdf="http://www.w3.org/1999/02/22-rdf-syntax-ns#"
   xmlns:svg="http://www.w3.org/2000/svg"
   xmlns="http://www.w3.org/2000/svg"
   xmlns:sodipodi="http://sodipodi.sourceforge.net/DTD/sodipodi-0.dtd"
   xmlns:inkscape="http://www.inkscape.org/namespaces/inkscape"
   width="73.794098mm"
   height="29.177158mm"
   viewBox="0 0 73.794098 29.177158"
   version="1.1"
   id="svg29921"
   sodipodi:docname="medfak-dark.svg"
   inkscape:version="1.0.1 (3bc2e813f5, 2020-09-07)">
  <defs
     id="defs29915">
    <clipPath
       clipPathUnits="userSpaceOnUse"
       id="clipPath29941">
      <path
         d="M 0,0 H 2704.93 V 1230.91 H 0 Z"
         id="path29939" />
    </clipPath>
  </defs>
  <sodipodi:namedview
     id="base"
     pagecolor="#ffffff"
     bordercolor="#666666"
     borderopacity="1.0"
     inkscape:pageopacity="0"
     inkscape:pageshadow="2"
     inkscape:zoom="5.2377432"
     inkscape:cx="109.51649"
     inkscape:cy="40.583706"
     inkscape:document-units="mm"
     inkscape:current-layer="g29937"
     inkscape:document-rotation="0"
     showgrid="false"
     fit-margin-top="0"
     fit-margin-left="0"
     fit-margin-right="0"
     fit-margin-bottom="0"
     inkscape:pagecheckerboard="false"
     inkscape:window-width="3840"
     inkscape:window-height="2123"
     inkscape:window-x="0"
     inkscape:window-y="0"
     inkscape:window-maximized="1" />
  <metadata
     id="metadata29918">
    <rdf:RDF>
      <cc:Work
         rdf:about="">
        <dc:format>image/svg+xml</dc:format>
        <dc:type
           rdf:resource="http://purl.org/dc/dcmitype/StillImage" />
        <dc:title></dc:title>
      </cc:Work>
    </rdf:RDF>
  </metadata>
  <g
     inkscape:label="Layer 1"
     inkscape:groupmode="layer"
     id="layer1"
     transform="translate(-55.241876,-53.303257)">
    <g
       id="g29937"
       clip-path="url(#clipPath29941)"
       transform="matrix(0.03527778,0,0,-0.03527778,44.413397,89.528245)">
      <path
         d="m 1258.66,290.852 30.14,-69.633 30.25,69.633 16.83,-87.661 h -9.46 l -10.67,56.098 h -0.22 l -26.73,-59.508 -26.62,59.508 h -0.22 l -10.67,-56.098 h -9.46 l 16.83,87.661"
         style="fill:#6e706f;fill-opacity:1;fill-rule:nonzero;stroke:none"
         id="path29943" />
      <path
         d="m 1382.19,234.648 c -0.29,1.829 -0.9,3.575 -1.81,5.227 -0.92,1.648 -2.04,3.098 -3.36,4.336 -1.32,1.25 -2.84,2.227 -4.56,2.922 -1.73,0.691 -3.54,1.043 -5.45,1.043 -1.91,0 -3.74,-0.352 -5.5,-1.043 -1.76,-0.695 -3.36,-1.672 -4.79,-2.922 -1.42,-1.238 -2.62,-2.688 -3.57,-4.336 -0.95,-1.652 -1.58,-3.398 -1.87,-5.227 z m -31.35,-7.476 c 0,-2.422 0.42,-4.684 1.26,-6.774 0.85,-2.089 2,-3.898 3.47,-5.449 1.47,-1.527 3.25,-2.758 5.34,-3.679 2.09,-0.918 4.38,-1.379 6.87,-1.379 3.74,0 6.88,1.007 9.41,3.031 2.53,2.008 4.63,4.558 6.32,7.648 l 7.48,-4.3 c -2.49,-4.622 -5.78,-8.188 -9.84,-10.719 -4.07,-2.531 -8.75,-3.789 -14.03,-3.789 -3.89,0 -7.39,0.687 -10.5,2.09 -3.12,1.386 -5.78,3.277 -7.98,5.66 -2.2,2.386 -3.89,5.187 -5.06,8.41 -1.17,3.226 -1.76,6.707 -1.76,10.449 0,3.817 0.55,7.434 1.65,10.84 1.1,3.406 2.71,6.379 4.84,8.906 2.13,2.528 4.75,4.531 7.87,5.996 3.11,1.465 6.69,2.207 10.72,2.207 4.18,0 7.85,-0.793 11,-2.375 3.15,-1.57 5.78,-3.718 7.87,-6.433 2.09,-2.715 3.61,-5.832 4.56,-9.344 0.95,-3.52 1.32,-7.191 1.1,-10.996 h -40.59"
         style="fill:#6e706f;fill-opacity:1;fill-rule:nonzero;stroke:none"
         id="path29945" />
      <path
         d="m 1424.99,248.176 c -2.57,0 -4.89,-0.52 -6.94,-1.543 -2.05,-1.028 -3.82,-2.403 -5.28,-4.121 -1.47,-1.731 -2.6,-3.703 -3.41,-5.938 -0.81,-2.246 -1.21,-4.57 -1.21,-6.996 0,-2.566 0.37,-5.019 1.1,-7.359 0.74,-2.348 1.82,-4.438 3.25,-6.27 1.43,-1.84 3.19,-3.301 5.28,-4.41 2.09,-1.098 4.52,-1.648 7.31,-1.648 2.86,0 5.35,0.531 7.48,1.597 2.12,1.063 3.92,2.5 5.39,4.293 1.47,1.797 2.56,3.867 3.3,6.207 0.74,2.352 1.1,4.852 1.1,7.481 0,2.574 -0.4,4.996 -1.21,7.269 -0.8,2.27 -1.95,4.25 -3.41,5.942 -1.47,1.675 -3.28,3.023 -5.44,4.011 -2.17,0.989 -4.61,1.485 -7.31,1.485 z m 16.93,-37.844 h -0.22 c -2.12,-2.781 -4.75,-4.91 -7.87,-6.371 -3.11,-1.473 -6.43,-2.199 -9.95,-2.199 -3.82,0 -7.24,0.75 -10.28,2.25 -3.05,1.5 -5.66,3.5 -7.81,5.988 -2.17,2.5 -3.82,5.371 -4.96,8.641 -1.13,3.269 -1.69,6.691 -1.69,10.289 0,3.66 0.56,7.168 1.69,10.496 1.14,3.34 2.77,6.258 4.9,8.75 2.13,2.492 4.73,4.472 7.81,5.937 3.08,1.465 6.56,2.207 10.45,2.207 3.52,0 6.83,-0.769 9.9,-2.312 3.08,-1.543 5.69,-3.703 7.81,-6.496 h 0.22 v 46.426 h 8.8 v -90.747 h -8.8 v 7.141"
         style="fill:#6e706f;fill-opacity:1;fill-rule:nonzero;stroke:none"
         id="path29947" />
      <path
         d="m 1477.45,203.191 h -8.8 v 51.696 h 8.8 z m -4.4,77.438 c 1.68,0 3.15,-0.625 4.4,-1.875 1.25,-1.242 1.87,-2.719 1.87,-4.399 0,-1.757 -0.62,-3.242 -1.87,-4.453 -1.25,-1.211 -2.72,-1.812 -4.4,-1.812 -1.69,0 -3.15,0.601 -4.4,1.812 -1.25,1.211 -1.87,2.696 -1.87,4.453 0,1.68 0.62,3.157 1.87,4.399 1.25,1.25 2.71,1.875 4.4,1.875"
         style="fill:#6e706f;fill-opacity:1;fill-rule:nonzero;stroke:none"
         id="path29949" />
      <path
         d="m 1542.02,211.328 v -8.137 h -53.46 l 37.28,43.559 h -30.36 v 8.137 h 48.08 l -37.19,-43.559 h 35.65"
         style="fill:#6e706f;fill-opacity:1;fill-rule:nonzero;stroke:none"
         id="path29951" />
      <path
         d="m 1563.35,203.191 h -8.79 v 51.696 h 8.79 z m -4.39,77.438 c 1.68,0 3.14,-0.625 4.39,-1.875 1.25,-1.242 1.88,-2.719 1.88,-4.399 0,-1.757 -0.63,-3.242 -1.88,-4.453 -1.25,-1.211 -2.71,-1.812 -4.39,-1.812 -1.69,0 -3.15,0.601 -4.4,1.812 -1.25,1.211 -1.87,2.696 -1.87,4.453 0,1.68 0.62,3.157 1.87,4.399 1.25,1.25 2.71,1.875 4.4,1.875"
         style="fill:#6e706f;fill-opacity:1;fill-rule:nonzero;stroke:none"
         id="path29953" />
      <path
         d="m 1590.52,248.613 h 0.23 c 1.82,2.492 3.93,4.407 6.32,5.727 2.38,1.316 5.19,1.98 8.41,1.98 3.6,0 6.53,-0.605 8.8,-1.816 2.28,-1.211 4.07,-2.844 5.39,-4.902 1.32,-2.051 2.22,-4.434 2.7,-7.149 0.48,-2.715 0.71,-5.574 0.71,-8.574 v -30.688 h -8.8 v 29.145 c 0,2.051 -0.09,4.055 -0.27,5.996 -0.19,1.941 -0.63,3.633 -1.32,5.059 -0.7,1.425 -1.78,2.586 -3.24,3.464 -1.48,0.879 -3.49,1.321 -6.06,1.321 -3,0 -5.37,-0.645 -7.09,-1.922 -1.72,-1.289 -3,-2.922 -3.85,-4.895 -0.84,-1.98 -1.37,-4.179 -1.6,-6.601 -0.22,-2.422 -0.33,-4.77 -0.33,-7.039 v -24.528 h -8.8 v 51.696 h 8.8 v -6.274"
         style="fill:#6e706f;fill-opacity:1;fill-rule:nonzero;stroke:none"
         id="path29955" />
      <path
         d="m 1650.25,203.191 h -8.8 v 51.696 h 8.8 z m -4.4,77.438 c 1.68,0 3.15,-0.625 4.4,-1.875 1.25,-1.242 1.87,-2.719 1.87,-4.399 0,-1.757 -0.62,-3.242 -1.87,-4.453 -1.25,-1.211 -2.72,-1.812 -4.4,-1.812 -1.68,0 -3.15,0.601 -4.4,1.812 -1.25,1.211 -1.87,2.696 -1.87,4.453 0,1.68 0.62,3.157 1.87,4.399 1.25,1.25 2.72,1.875 4.4,1.875"
         style="fill:#6e706f;fill-opacity:1;fill-rule:nonzero;stroke:none"
         id="path29957" />
      <path
         d="m 1689.51,242.891 c -0.58,1.398 -1.5,2.629 -2.73,3.695 -1.25,1.055 -2.7,1.59 -4.3,1.59 -1.54,0 -2.99,-0.535 -4.35,-1.59 -1.35,-1.066 -2.04,-2.445 -2.04,-4.133 0,-1.172 0.36,-2.18 1.06,-3.027 0.68,-0.84 1.58,-1.613 2.69,-2.305 1.1,-0.703 2.37,-1.316 3.79,-1.875 1.43,-0.547 2.91,-1.152 4.46,-1.808 1.54,-0.665 3.02,-1.395 4.45,-2.208 1.42,-0.8 2.69,-1.781 3.81,-2.91 1.09,-1.14 1.99,-2.5 2.69,-4.07 0.69,-1.578 1.04,-3.469 1.04,-5.66 0,-2.43 -0.45,-4.68 -1.37,-6.77 -0.92,-2.09 -2.19,-3.871 -3.81,-5.332 -1.6,-1.468 -3.45,-2.629 -5.54,-3.468 -2.09,-0.84 -4.36,-1.258 -6.76,-1.258 -4.42,0 -8.21,1.148 -11.39,3.457 -3.2,2.312 -5.49,5.511 -6.87,9.633 l 7.81,3.296 c 1.09,-2.429 2.38,-4.41 3.89,-5.937 1.5,-1.539 3.73,-2.32 6.66,-2.32 2.34,0 4.33,0.738 5.93,2.199 1.62,1.48 2.42,3.379 2.42,5.719 0,1.91 -0.56,3.453 -1.69,4.621 -1.14,1.179 -2.58,2.199 -4.36,3.09 -1.76,0.878 -3.61,1.699 -5.61,2.468 -1.97,0.774 -3.84,1.723 -5.6,2.864 -1.76,1.132 -3.2,2.546 -4.34,4.238 -1.15,1.68 -1.72,3.879 -1.72,6.59 0,2.211 0.41,4.203 1.22,6 0.8,1.793 1.93,3.336 3.35,4.617 1.43,1.289 3.07,2.273 4.91,2.976 1.81,0.696 3.81,1.047 5.93,1.047 3.01,0 5.75,-0.918 8.25,-2.754 2.5,-1.836 4.33,-4.113 5.5,-6.816 l -7.38,-3.859"
         style="fill:#6e706f;fill-opacity:1;fill-rule:nonzero;stroke:none"
         id="path29959" />
      <path
         d="m 1750.9,239.484 h -0.22 c -2.07,2.571 -4.37,4.657 -6.93,6.27 -2.58,1.609 -5.61,2.422 -9.14,2.422 -2.64,0 -5.08,-0.52 -7.31,-1.543 -2.24,-1.028 -4.16,-2.422 -5.78,-4.18 -1.62,-1.758 -2.87,-3.789 -3.79,-6.105 -0.91,-2.301 -1.38,-4.746 -1.38,-7.317 0,-2.562 0.43,-5 1.27,-7.312 0.84,-2.309 2.03,-4.348 3.57,-6.098 1.54,-1.762 3.42,-3.16 5.61,-4.18 2.2,-1.031 4.66,-1.55 7.38,-1.55 3.73,0 6.93,0.8 9.63,2.371 2.67,1.578 5.08,3.758 7.19,6.539 h 0.23 v -11.77 c -2.58,-1.691 -5.18,-2.992 -7.81,-3.902 -2.64,-0.91 -5.51,-1.367 -8.58,-1.367 -3.88,0 -7.52,0.687 -10.89,2.09 -3.38,1.386 -6.29,3.296 -8.75,5.707 -2.47,2.421 -4.38,5.312 -5.77,8.64 -1.4,3.332 -2.09,6.949 -2.09,10.832 0,3.813 0.73,7.387 2.19,10.727 1.47,3.34 3.46,6.23 5.94,8.691 2.5,2.461 5.41,4.387 8.75,5.774 3.34,1.394 6.91,2.097 10.72,2.097 2.79,0 5.57,-0.449 8.3,-1.328 2.76,-0.879 5.31,-2.156 7.66,-3.847 v -11.661"
         style="fill:#6e706f;fill-opacity:1;fill-rule:nonzero;stroke:none"
         id="path29961" />
      <path
         d="M 1773.67,293.938 V 248.84 l 0.22,-0.227 c 1.83,2.492 3.94,4.407 6.32,5.727 2.39,1.316 5.2,1.98 8.42,1.98 3.6,0 6.53,-0.605 8.79,-1.816 2.29,-1.211 4.08,-2.844 5.39,-4.902 1.33,-2.051 2.23,-4.434 2.7,-7.149 0.49,-2.715 0.72,-5.574 0.72,-8.574 v -30.688 h -8.81 v 29.145 c 0,2.051 -0.08,4.055 -0.27,5.996 -0.18,1.941 -0.63,3.633 -1.31,5.059 -0.7,1.425 -1.78,2.586 -3.24,3.464 -1.49,0.879 -3.5,1.321 -6.06,1.321 -3,0 -5.37,-0.645 -7.09,-1.922 -1.74,-1.289 -3,-2.922 -3.86,-4.895 -0.84,-1.98 -1.37,-4.179 -1.59,-6.601 -0.23,-2.422 -0.33,-4.77 -0.33,-7.039 v -24.528 h -8.81 v 90.747 h 8.81"
         style="fill:#6e706f;fill-opacity:1;fill-rule:nonzero;stroke:none"
         id="path29963" />
      <path
         d="m 1858.69,234.648 c -0.29,1.829 -0.9,3.575 -1.81,5.227 -0.92,1.648 -2.04,3.098 -3.36,4.336 -1.31,1.25 -2.84,2.227 -4.56,2.922 -1.73,0.691 -3.53,1.043 -5.44,1.043 -1.92,0 -3.75,-0.352 -5.51,-1.043 -1.76,-0.695 -3.34,-1.672 -4.79,-2.922 -1.42,-1.238 -2.61,-2.688 -3.57,-4.336 -0.96,-1.652 -1.56,-3.398 -1.86,-5.227 z m -31.35,-7.476 c 0,-2.422 0.43,-4.684 1.27,-6.774 0.84,-2.089 2,-3.898 3.46,-5.449 1.47,-1.527 3.24,-2.758 5.33,-3.679 2.09,-0.918 4.4,-1.379 6.88,-1.379 3.75,0 6.87,1.007 9.41,3.031 2.52,2.008 4.63,4.558 6.33,7.648 l 7.48,-4.3 c -2.5,-4.622 -5.78,-8.188 -9.84,-10.719 -4.09,-2.531 -8.75,-3.789 -14.03,-3.789 -3.88,0 -7.4,0.687 -10.5,2.09 -3.13,1.386 -5.79,3.277 -7.99,5.66 -2.19,2.386 -3.89,5.187 -5.06,8.41 -1.17,3.226 -1.76,6.707 -1.76,10.449 0,3.817 0.55,7.434 1.66,10.84 1.09,3.406 2.72,6.379 4.84,8.906 2.11,2.528 4.75,4.531 7.86,5.996 3.12,1.465 6.7,2.207 10.72,2.207 4.18,0 7.85,-0.793 11.01,-2.375 3.15,-1.57 5.77,-3.718 7.86,-6.433 2.09,-2.715 3.61,-5.832 4.57,-9.344 0.95,-3.52 1.32,-7.191 1.09,-10.996 h -40.59"
         style="fill:#6e706f;fill-opacity:1;fill-rule:nonzero;stroke:none"
         id="path29965" />
      <path
         d="m 1923.14,277.543 v -24.641 h 27.62 v -8.574 h -27.62 v -41.137 h -9.23 v 82.934 h 37.73 v -8.582 h -28.5"
         style="fill:#6e706f;fill-opacity:1;fill-rule:nonzero;stroke:none"
         id="path29967" />
      <path
         d="m 1987.95,248.176 c -2.58,0 -4.88,-0.52 -6.93,-1.543 -2.06,-1.028 -3.83,-2.403 -5.3,-4.121 -1.46,-1.731 -2.59,-3.703 -3.4,-5.938 -0.82,-2.246 -1.21,-4.57 -1.21,-6.996 0,-2.566 0.37,-5.019 1.1,-7.359 0.74,-2.348 1.81,-4.438 3.24,-6.27 1.44,-1.84 3.2,-3.301 5.29,-4.41 2.09,-1.098 4.51,-1.648 7.31,-1.648 2.87,0 5.35,0.531 7.48,1.597 2.13,1.063 3.92,2.5 5.39,4.293 1.46,1.797 2.56,3.867 3.3,6.207 0.74,2.352 1.09,4.852 1.09,7.481 0,2.574 -0.39,4.996 -1.21,7.269 -0.8,2.27 -1.93,4.25 -3.4,5.942 -1.46,1.675 -3.28,3.023 -5.45,4.011 -2.16,0.989 -4.61,1.485 -7.3,1.485 z m 25.72,-44.985 h -8.79 v 7.141 h -0.21 c -4.55,-5.723 -10.49,-8.57 -17.83,-8.57 -3.81,0 -7.25,0.75 -10.28,2.25 -3.04,1.5 -5.66,3.5 -7.81,5.988 -2.17,2.5 -3.83,5.371 -4.96,8.641 -1.13,3.269 -1.7,6.691 -1.7,10.289 0,3.66 0.57,7.168 1.7,10.496 1.13,3.34 2.77,6.258 4.9,8.75 2.13,2.492 4.73,4.472 7.81,5.937 3.07,1.465 6.57,2.207 10.45,2.207 3.52,0 6.82,-0.769 9.91,-2.312 3.06,-1.543 5.68,-3.703 7.81,-6.496 h 0.21 v 7.375 h 8.79 v -51.696"
         style="fill:#6e706f;fill-opacity:1;fill-rule:nonzero;stroke:none"
         id="path29969" />
      <path
         d="m 2038.32,235.742 18.81,19.145 h 11.78 l -22.13,-22.004 26.31,-29.692 h -11.66 l -20.8,23.528 -2.31,-2.297 v -21.231 h -8.81 v 90.747 h 8.81 v -58.196"
         style="fill:#6e706f;fill-opacity:1;fill-rule:nonzero;stroke:none"
         id="path29971" />
      <path
         d="m 2089.8,226.07 c 0,-2.199 0.1,-4.281 0.32,-6.218 0.23,-1.954 0.72,-3.653 1.48,-5.114 0.78,-1.476 1.95,-2.648 3.54,-3.527 1.56,-0.879 3.67,-1.32 6.32,-1.32 2.64,0 4.75,0.441 6.31,1.32 1.59,0.879 2.76,2.051 3.54,3.527 0.76,1.461 1.25,3.16 1.48,5.114 0.22,1.937 0.34,4.019 0.34,6.218 v 28.817 h 8.78 v -29.809 c 0,-3.457 -0.35,-6.598 -1.03,-9.457 -0.7,-2.859 -1.86,-5.332 -3.48,-7.383 -1.6,-2.047 -3.71,-3.648 -6.33,-4.777 -2.59,-1.133 -5.8,-1.699 -9.61,-1.699 -3.82,0 -7.03,0.566 -9.62,1.699 -2.62,1.129 -4.73,2.73 -6.33,4.777 -1.62,2.051 -2.78,4.524 -3.48,7.383 -0.68,2.859 -1.03,6 -1.03,9.457 v 29.809 h 8.8 V 226.07"
         style="fill:#6e706f;fill-opacity:1;fill-rule:nonzero;stroke:none"
         id="path29973" />
      <path
         d="m 2146.56,203.191 h -8.81 v 90.747 h 8.81 v -90.747"
         style="fill:#6e706f;fill-opacity:1;fill-rule:nonzero;stroke:none"
         id="path29975" />
      <path
         d="m 2172.19,203.191 h -8.81 v 43.559 h -5.39 v 8.137 h 5.39 v 18.59 h 8.81 v -18.59 h 9.24 v -8.137 h -9.24 v -43.559"
         style="fill:#6e706f;fill-opacity:1;fill-rule:nonzero;stroke:none"
         id="path29977" />
      <path
         d="m 2223.55,280.734 c 1.68,0 3.09,-0.566 4.24,-1.699 1.14,-1.144 1.7,-2.551 1.7,-4.238 0,-1.692 -0.56,-3.098 -1.7,-4.238 -1.15,-1.133 -2.56,-1.7 -4.24,-1.7 -1.69,0 -3.1,0.567 -4.23,1.7 -1.14,1.14 -1.7,2.546 -1.7,4.238 0,1.687 0.56,3.094 1.7,4.238 1.13,1.133 2.54,1.699 4.23,1.699 z m -21.67,0 c 1.69,0 3.1,-0.566 4.23,-1.699 1.14,-1.144 1.7,-2.551 1.7,-4.238 0,-1.692 -0.56,-3.098 -1.7,-4.238 -1.13,-1.133 -2.54,-1.7 -4.23,-1.7 -1.68,0 -3.09,0.567 -4.24,1.7 -1.14,1.14 -1.7,2.546 -1.7,4.238 0,1.687 0.56,3.094 1.7,4.238 1.15,1.133 2.56,1.699 4.24,1.699 z m 8.92,-32.558 c -2.58,0 -4.88,-0.52 -6.93,-1.543 -2.05,-1.028 -3.83,-2.403 -5.3,-4.121 -1.46,-1.731 -2.59,-3.703 -3.39,-5.938 -0.82,-2.246 -1.22,-4.57 -1.22,-6.996 0,-2.566 0.38,-5.019 1.1,-7.359 0.74,-2.348 1.82,-4.438 3.24,-6.27 1.45,-1.84 3.2,-3.301 5.29,-4.41 2.09,-1.098 4.52,-1.648 7.31,-1.648 2.87,0 5.35,0.531 7.48,1.597 2.13,1.063 3.92,2.5 5.39,4.293 1.46,1.797 2.56,3.867 3.3,6.207 0.74,2.352 1.09,4.852 1.09,7.481 0,2.574 -0.39,4.996 -1.21,7.269 -0.8,2.27 -1.93,4.25 -3.4,5.942 -1.46,1.675 -3.28,3.023 -5.44,4.011 -2.17,0.989 -4.61,1.485 -7.31,1.485 z m 25.72,-44.985 h -8.79 v 7.141 h -0.21 c -4.55,-5.723 -10.49,-8.57 -17.83,-8.57 -3.81,0 -7.25,0.75 -10.28,2.25 -3.04,1.5 -5.66,3.5 -7.81,5.988 -2.17,2.5 -3.83,5.371 -4.96,8.641 -1.13,3.269 -1.7,6.691 -1.7,10.289 0,3.66 0.57,7.168 1.7,10.496 1.13,3.34 2.77,6.258 4.9,8.75 2.13,2.492 4.73,4.472 7.82,5.937 3.06,1.465 6.56,2.207 10.44,2.207 3.52,0 6.82,-0.769 9.91,-2.312 3.06,-1.543 5.68,-3.703 7.81,-6.496 h 0.21 v 7.375 h 8.79 v -51.696"
         style="fill:#6e706f;fill-opacity:1;fill-rule:nonzero;stroke:none"
         id="path29979" />
      <path
         d="m 2262.05,203.191 h -8.81 v 43.559 h -5.39 v 8.137 h 5.39 v 18.59 h 8.81 v -18.59 h 9.24 v -8.137 h -9.24 v -43.559"
         style="fill:#6e706f;fill-opacity:1;fill-rule:nonzero;stroke:none"
         id="path29981" />
      <path
         d="m 2313.34,835.961 v -16.305 h 33.83 V 693.141 h 17.75 v 126.515 h 33.83 v 16.305 h -85.41"
         style="fill:#dce0df;fill-opacity:1;fill-rule:nonzero;stroke:none"
         id="path29983" />
      <path
         d="m 2194.22,835.961 h -85.41 v -16.305 h 33.83 V 693.141 h 17.75 v 126.515 h 33.83 v 16.305"
         style="fill:#dce0df;fill-opacity:1;fill-rule:nonzero;stroke:none"
         id="path29985" />
      <path
         d="m 2066,693.141 h 17.77 v 142.82 H 2066 v -142.82"
         style="fill:#dce0df;fill-opacity:1;fill-rule:nonzero;stroke:none"
         id="path29987" />
      <path
         d="m 1998.18,777.609 -10.19,3.981 c -8.89,3.402 -19.85,9.265 -19.85,20.457 0,12.512 12.49,20.254 23.81,20.254 10.78,0 17.58,-4.528 22.85,-13.434 l 14.18,8.528 c -7.73,13.828 -20.76,21.589 -36.66,21.589 -21.52,0 -41.93,-13.828 -41.93,-36.937 0,-19.891 14.73,-29.188 30.98,-36.18 l 9.84,-4.172 c 12.27,-5.109 24.55,-11.742 24.55,-27.09 0,-14.957 -10.96,-27.839 -26.27,-27.839 -15.29,0 -27.77,11.367 -27.6,27.089 l -17.94,-3.808 c 3.02,-22.906 20.99,-39.949 44.04,-39.949 25.51,0 45.53,18.547 45.53,44.507 0,23.879 -15.12,35.04 -35.34,43.004"
         style="fill:#dce0df;fill-opacity:1;fill-rule:nonzero;stroke:none"
         id="path29989" />
      <path
         d="m 1803.34,709.418 h -58.79 v 53.988 h 57.07 v 16.289 h -57.07 v 39.961 h 58.79 v 16.305 h -76.54 v -142.82 h 76.54 v 16.277"
         style="fill:#dce0df;fill-opacity:1;fill-rule:nonzero;stroke:none"
         id="path29991" />
      <path
         d="m 1708.36,835.961 h -19.45 l -42.35,-105.715 -42.5,105.715 h -19.47 l 61.97,-150.422 61.8,150.422"
         style="fill:#dce0df;fill-opacity:1;fill-rule:nonzero;stroke:none"
         id="path29993" />
      <path
         d="m 1566.05,835.961 h -17.77 v -142.82 h 17.77 v 142.82"
         style="fill:#dce0df;fill-opacity:1;fill-rule:nonzero;stroke:none"
         id="path29995" />
      <path
         d="m 1402.49,799.57 106.94,-112.32 v 148.711 h -17.75 V 730.438 L 1384.72,842.773 V 693.141 h 17.77 V 799.57"
         style="fill:#dce0df;fill-opacity:1;fill-rule:nonzero;stroke:none"
         id="path29997" />
      <path
         d="m 1300.41,690.098 c 32.69,0 52.15,24.05 52.15,55.5 v 90.363 h -17.76 v -84.313 c 0,-23.281 -6.99,-44.882 -34.39,-44.882 -27.4,0 -34.39,21.601 -34.39,44.882 v 84.313 h -17.76 v -90.363 c 0,-31.45 19.46,-55.5 52.15,-55.5"
         style="fill:#dce0df;fill-opacity:1;fill-rule:nonzero;stroke:none"
         id="path29999" />
      <path
         d="m 1864.36,768.328 h -5.67 v 51.703 h 4.71 c 17.58,0 38.75,-3.199 38.75,-25.57 0,-22.731 -19.65,-26.133 -37.79,-26.133 z m 54.41,26.883 c 0,13.656 -6.8,27.09 -18.71,34.117 -11.33,6.426 -24.94,6.633 -37.6,6.633 h -21.54 v -142.82 h 17.77 v 60.422 h 7.36 l 41.94,-60.422 h 21.56 l -44.98,62.117 c 20.61,2.461 34.2,19.515 34.2,39.953"
         style="fill:#dce0df;fill-opacity:1;fill-rule:nonzero;stroke:none"
         id="path30001" />
      <path
         d="m 2281.7,814.199 c 6.25,0 11.35,5.11 11.35,11.535 0,6.258 -5.1,11.368 -11.35,11.368 -6.41,0 -11.52,-5.11 -11.52,-11.368 0,-6.425 5.11,-11.535 11.52,-11.535"
         style="fill:#dce0df;fill-opacity:1;fill-rule:nonzero;stroke:none"
         id="path30003" />
      <path
         d="m 2228.36,745.223 25.33,57.765 25.31,-57.765 z m -42.7,-52.082 h 19.09 l 16.25,35.793 h 65.37 l 16.25,-35.793 h 19.1 l -68.03,148.867 -68.03,-148.867"
         style="fill:#dce0df;fill-opacity:1;fill-rule:nonzero;stroke:none"
         id="path30005" />
      <path
         d="m 2225.66,814.199 c 6.45,0 11.55,5.11 11.55,11.535 0,6.258 -5.1,11.368 -11.55,11.368 -6.23,0 -11.34,-5.11 -11.34,-11.368 0,-6.425 5.11,-11.535 11.34,-11.535"
         style="fill:#dce0df;fill-opacity:1;fill-rule:nonzero;stroke:none"
         id="path30007" />
      <path
         d="m 1266.01,624.664 h -17.75 V 481.828 h 61.02 v 16.289 h -43.27 v 126.547"
         style="fill:#dce0df;fill-opacity:1;fill-rule:nonzero;stroke:none"
         id="path30009" />
      <path
         d="m 1827.87,537.531 h 36.84 c -0.76,-23.308 -24.55,-42.441 -46.66,-42.441 -30.8,0 -55.37,28.406 -55.37,58.34 0,32.011 24.94,57.972 56.87,57.972 17.4,0 34.59,-9.281 44.79,-23.312 l 12.48,11.941 c -13.99,17.61 -35.9,27.66 -58.01,27.66 -41.02,0 -73.89,-33.707 -73.89,-74.828 0,-39.582 32.13,-74.054 71.99,-74.054 39.89,0 67.47,30.109 67.47,69.32 v 5.691 h -56.51 v -16.289"
         style="fill:#dce0df;fill-opacity:1;fill-rule:nonzero;stroke:none"
         id="path30011" />
      <path
         d="m 1702.19,481.828 h 17.75 v 142.836 h -17.75 V 481.828"
         style="fill:#dce0df;fill-opacity:1;fill-rule:nonzero;stroke:none"
         id="path30013" />
      <path
         d="m 1586.91,623.063 v -16.301 h 62 l -72.19,-126.528 h 101.09 v 16.289 h -72.18 l 72.18,126.54 h -90.9"
         style="fill:#dce0df;fill-opacity:1;fill-rule:nonzero;stroke:none"
         id="path30015" />
      <path
         d="m 1438.06,481.828 h 17.77 v 142.836 h -17.77 V 481.828"
         style="fill:#dce0df;fill-opacity:1;fill-rule:nonzero;stroke:none"
         id="path30017" />
      <path
         d="m 1327.01,481.828 h 76.54 v 16.289 h -58.78 v 53.977 h 57.07 v 16.304 h -57.07 v 39.973 h 58.78 v 16.293 h -76.54 V 481.828"
         style="fill:#dce0df;fill-opacity:1;fill-rule:nonzero;stroke:none"
         id="path30019" />
      <path
         d="m 1518.69,557.598 h -5.66 v 51.14 h 4.72 c 17.58,0 38.73,-2.652 38.73,-25.008 0,-22.714 -19.64,-26.132 -37.79,-26.132 z m -3.01,67.066 h -20.43 V 481.828 h 17.78 v 59.863 h 10.19 c 27.03,0 49.91,11.551 49.91,41.68 0,26.133 -13.62,41.293 -57.45,41.293"
         style="fill:#dce0df;fill-opacity:1;fill-rule:nonzero;stroke:none"
         id="path30021" />
      <path
         d="m 1141.58,294.727 h 4.18 v 732.123 h -4.18 V 294.727"
         style="fill:#dce0df;fill-opacity:1;fill-rule:nonzero;stroke:none"
         id="path30023" />
      <path
         d="m 673.012,298.945 c -199.52,0 -361.828,162.336 -361.828,361.852 0,199.523 162.308,361.833 361.828,361.833 199.523,0 361.838,-162.31 361.838,-361.833 0,-199.516 -162.315,-361.852 -361.838,-361.852 z m 0,727.905 c -201.844,0 -366.063,-164.225 -366.063,-366.053 0,-201.84 164.219,-366.07 366.063,-366.07 201.847,0 366.068,164.23 366.068,366.07 0,201.828 -164.221,366.053 -366.068,366.053"
         style="fill:#dce0df;fill-opacity:1;fill-rule:nonzero;stroke:none"
         id="path30025" />
      <path
         d="m 583.176,768.938 c 0.07,-0.043 1.469,-0.625 1.508,-0.625 0.089,0 0.828,-0.364 0.914,-0.375 0.687,0.203 0.957,0.843 1.304,1.535 0.028,0.031 1.938,3.257 3.352,5.8 0.805,1.457 1.973,2.961 4.551,2.258 0.824,-0.207 2.32,-0.738 3.449,-1.176 0.059,0.141 0.121,0.282 0.219,0.407 0.175,0.218 0.336,0.437 0.468,0.707 0,0 0.145,0.328 0.18,0.359 0.141,0.375 0.254,0.738 0.367,1.129 -0.172,0.219 -0.269,0.504 -0.332,0.766 -0.308,0.14 -0.543,0.375 -0.722,0.644 -0.485,0.156 -0.957,0.328 -1.387,0.52 -3.906,1.593 -7.863,0.25 -9.973,-3.532 -1.066,-1.945 -3.226,-4.703 -3.883,-6.035 -0.398,-0.781 -0.714,-1.8 -0.015,-2.382"
         style="fill:#dce0df;fill-opacity:1;fill-rule:nonzero;stroke:none"
         id="path30027" />
      <path
         d="m 580.98,777.844 c 1.094,-0.25 2.129,0.687 2.356,1.164 0.203,0.48 -0.301,1.609 -0.523,2.047 -0.215,0.425 -0.684,0.789 -1.508,1.086 -0.832,0.285 -1.672,-0.036 -1.672,-0.036 0,0 -1.32,-0.48 -1.645,-1.05 -0.332,-0.594 0.117,-1.5 0.567,-2.071 0.465,-0.574 1.324,-0.871 2.425,-1.14"
         style="fill:#dce0df;fill-opacity:1;fill-rule:nonzero;stroke:none"
         id="path30029" />
      <path
         d="m 580.359,765.555 c -0.925,0.672 -1.89,-0.235 -1.89,-0.235 0,0 -0.465,-0.66 -0.465,-1.601 0,-0.938 -0.024,-2.633 4.047,-3.606 1.539,-0.375 2.406,0.016 2.91,1.27 1.074,2.73 -2.594,2.695 -4.602,4.172"
         style="fill:#dce0df;fill-opacity:1;fill-rule:nonzero;stroke:none"
         id="path30031" />
      <path
         d="m 765.602,775.211 c 1.378,-0.156 2.527,1.156 2.726,1.769 0.203,0.614 -0.586,1.95 -0.91,2.43 -0.328,0.504 -0.957,0.895 -2.023,1.113 -1.075,0.25 -2.051,-0.25 -2.051,-0.25 0,0 -1.567,-0.769 -1.883,-1.535 -0.328,-0.765 0.348,-1.836 1.004,-2.476 0.64,-0.629 1.746,-0.879 3.137,-1.051"
         style="fill:#dce0df;fill-opacity:1;fill-rule:nonzero;stroke:none"
         id="path30033" />
      <path
         d="m 803.801,681.746 c 1,-0.094 1.812,0.828 1.98,1.281 0.133,0.442 -0.433,1.399 -0.664,1.739 -0.246,0.363 -0.687,0.632 -1.457,0.816 -0.773,0.176 -1.476,-0.184 -1.476,-0.184 0,0 -1.137,-0.566 -1.371,-1.113 -0.227,-0.566 0.261,-1.336 0.73,-1.789 0.453,-0.437 1.262,-0.629 2.258,-0.75"
         style="fill:#dce0df;fill-opacity:1;fill-rule:nonzero;stroke:none"
         id="path30035" />
      <path
         d="m 745.508,780.398 c -0.481,0.344 -1.211,0.489 -2.281,0.332 -1.075,-0.128 -1.836,-0.929 -1.836,-0.929 0,0 -1.192,-1.285 -1.235,-2.113 -0.035,-0.833 0.961,-1.602 1.797,-1.977 0.824,-0.359 1.949,-0.199 3.313,0.125 1.355,0.312 1.964,1.961 1.953,2.59 -0.031,0.637 -1.223,1.617 -1.711,1.972"
         style="fill:#dce0df;fill-opacity:1;fill-rule:nonzero;stroke:none"
         id="path30037" />
      <path
         d="m 597.035,773.078 c -0.859,0.203 -1.64,-0.203 -1.64,-0.203 0,0 -1.278,-0.625 -1.528,-1.258 -0.262,-0.609 0.274,-1.453 0.805,-1.972 0.508,-0.516 1.402,-0.723 2.531,-0.844 1.121,-0.141 2.031,0.922 2.199,1.426 0.164,0.496 -0.476,1.566 -0.734,1.957 -0.27,0.406 -0.773,0.703 -1.633,0.894"
         style="fill:#dce0df;fill-opacity:1;fill-rule:nonzero;stroke:none"
         id="path30039" />
      <path
         d="m 406.168,468.43 9.937,16.035 8.543,-11.961 z m 36.371,8 -13.09,-2.903 -10.793,15.11 7.063,11.336 -3.125,4.375 -25.692,-42.395 48.719,10.156 -3.082,4.321"
         style="fill:#dce0df;fill-opacity:1;fill-rule:nonzero;stroke:none"
         id="path30041" />
      <path
         d="m 408.473,531.152 -3.969,-2.097 5.578,-10.617 -34.484,-18.141 2.257,-4.289 38.458,20.254 -7.84,14.89"
         style="fill:#dce0df;fill-opacity:1;fill-rule:nonzero;stroke:none"
         id="path30043" />
      <path
         d="m 403.891,539.063 -1.629,4.679 -29.606,-4.355 -0.039,0.105 24.883,23.41 -34.059,2.989 -0.023,0.125 25.934,14.914 -1.637,4.687 -40.504,-23.398 39.668,-3.008 -29.281,-26.887 46.293,6.739"
         style="fill:#dce0df;fill-opacity:1;fill-rule:nonzero;stroke:none"
         id="path30045" />
      <path
         d="m 348.949,609.879 16.129,9.769 2.192,-14.519 z m 36.055,-9.359 -12.988,3.339 -2.778,18.36 11.414,6.914 -0.789,5.297 -42.097,-26.137 48.031,-13.008 -0.793,5.235"
         style="fill:#dce0df;fill-opacity:1;fill-rule:nonzero;stroke:none"
         id="path30047" />
      <path
         d="m 378.473,656.754 0.375,4.937 -28.899,7.793 0.012,0.114 32.144,11.55 -30.031,16.332 v 0.114 l 29.735,3.355 0.379,4.938 -46.485,-5.313 35.199,-18.582 L 333.32,669 378.473,656.754"
         style="fill:#dce0df;fill-opacity:1;fill-rule:nonzero;stroke:none"
         id="path30049" />
      <path
         d="m 369.898,726.16 -15.117,11.395 18.633,2.883 z m 14.614,-11.019 -10.711,8.039 4.429,18.027 13.208,2.035 1.281,5.192 -48.887,-8.075 39.414,-30.367 1.266,5.149"
         style="fill:#dce0df;fill-opacity:1;fill-rule:nonzero;stroke:none"
         id="path30051" />
      <path
         d="M 362.203,777.141 398.512,763 l 1.758,4.512 -36.317,14.156 3.86,9.863 -4.192,1.66 -9.422,-24.191 4.196,-1.629 3.808,9.77"
         style="fill:#dce0df;fill-opacity:1;fill-rule:nonzero;stroke:none"
         id="path30053" />
      <path
         d="m 420.859,809.57 -3.945,2.153 -8.492,-15.52 -14.969,8.184 8.246,15.078 -3.949,2.164 -8.238,-15.078 -11.328,6.207 8.496,15.519 -3.946,2.164 -10.816,-19.785 38.121,-20.851 10.82,19.765"
         style="fill:#dce0df;fill-opacity:1;fill-rule:nonzero;stroke:none"
         id="path30055" />
      <path
         d="m 415.57,843.453 c -0.011,-0.019 -0.039,-0.019 -0.097,-0.031 l -0.871,-1.223 -12.664,9.156 0.839,1.157 c 1.711,2.367 3.551,4.218 5.536,5.551 1.976,1.32 4.417,0.921 7.324,-1.176 2.718,-1.973 3.797,-4.157 3.211,-6.524 -0.571,-2.383 -1.645,-4.668 -3.227,-6.832 -0.012,-0.047 -0.035,-0.062 -0.051,-0.078 z m 17.953,-14.926 -15.464,11.192 0.711,0.976 23.164,-0.515 3.472,4.808 -23.859,0.157 c 1.711,2.882 2.266,5.769 1.652,8.621 -0.617,2.859 -2.269,5.269 -4.984,7.226 -3.992,2.887 -7.555,3.453 -10.711,1.727 -3.141,-1.742 -5.938,-4.266 -8.379,-7.571 l -3.672,-5.097 35.238,-25.446 2.832,3.922"
         style="fill:#dce0df;fill-opacity:1;fill-rule:nonzero;stroke:none"
         id="path30057" />
      <path
         d="m 917.125,822.398 3.645,2.633 -7.024,9.723 31.574,22.82 -2.836,3.922 -35.218,-25.461 9.859,-13.637"
         style="fill:#dce0df;fill-opacity:1;fill-rule:nonzero;stroke:none"
         id="path30059" />
      <path
         d="m 928.832,803.039 37.684,21.645 -2.411,4.207 -37.687,-21.653 2.414,-4.199"
         style="fill:#dce0df;fill-opacity:1;fill-rule:nonzero;stroke:none"
         id="path30061" />
      <path
         d="m 977.621,792.488 0.692,-1.668 c 0.015,-0.027 0.023,-0.054 0.039,-0.078 0.003,-0.012 0.011,-0.027 0.031,-0.074 1.074,-2.586 1.707,-5.109 1.871,-7.555 0.172,-2.461 -1.367,-4.359 -4.606,-5.711 -2.871,-1.218 -5.183,-1.109 -6.918,0.286 -1.738,1.41 -3.101,3.339 -4.113,5.828 l -1.242,3 z m -35.937,-15.07 17.546,7.34 1.356,-3.235 c 0.094,-0.214 0.176,-0.433 0.269,-0.636 0.083,-0.207 0.18,-0.426 0.262,-0.645 0.68,-1.426 1.5,-2.773 2.457,-4.058 0.953,-1.289 2.164,-2.325 3.653,-3.079 1.488,-0.781 3.101,-1.203 4.816,-1.218 1.711,-0.032 3.363,0.234 4.953,0.816 0.074,0.027 0.137,0.063 0.207,0.106 0.078,0.019 0.141,0.05 0.215,0.078 1.762,0.738 3.312,1.836 4.637,3.277 1.328,1.461 2.183,3.152 2.59,5.066 0.332,1.598 0.32,3.18 -0.02,4.735 -0.348,1.566 -0.809,3.105 -1.398,4.609 -0.102,0.246 -0.204,0.489 -0.313,0.735 -0.098,0.269 -0.184,0.519 -0.258,0.769 l -2.761,6.586 -40.09,-16.793 1.879,-4.453"
         style="fill:#dce0df;fill-opacity:1;fill-rule:nonzero;stroke:none"
         id="path30063" />
      <path
         d="m 980.141,747.84 c -1.059,-2.227 -1.801,-4.703 -2.243,-7.434 l -0.5,-2.863 c -0.019,-0.102 -0.027,-0.164 -0.039,-0.227 -0.004,-0.078 -0.011,-0.136 -0.031,-0.234 -0.355,-2.113 -0.902,-4.059 -1.629,-5.859 -0.722,-1.789 -2.277,-3 -4.652,-3.61 -2.391,-0.625 -4.57,-0.261 -6.574,1.086 -1.993,1.348 -3.285,3.149 -3.875,5.426 -0.598,2.27 -0.321,4.367 0.808,6.281 1.129,1.93 2.75,3.324 4.867,4.188 l -2.523,4.23 c -3.105,-1.519 -5.332,-3.715 -6.695,-6.582 -1.364,-2.836 -1.602,-5.957 -0.731,-9.344 0.949,-3.652 2.996,-6.441 6.141,-8.39 3.144,-1.942 6.558,-2.426 10.246,-1.469 3.34,0.859 5.602,2.524 6.746,4.922 1.164,2.426 1.992,5.184 2.512,8.262 l 0.441,3.105 c 0.047,0.277 0.102,0.574 0.149,0.906 0.046,0.344 0.117,0.661 0.179,1.004 0.289,1.348 0.758,2.653 1.407,3.918 0.64,1.258 1.691,2.071 3.144,2.461 1.934,0.485 3.688,0.207 5.262,-0.879 1.566,-1.078 2.586,-2.55 3.07,-4.402 0.469,-1.801 0.449,-3.356 -0.062,-4.688 -0.516,-1.32 -1.375,-2.574 -2.571,-3.746 l 3.34,-3.105 c 1.781,1.66 2.988,3.574 3.629,5.738 0.643,2.195 0.663,4.469 0.043,6.801 -0.812,3.141 -2.484,5.633 -5.027,7.48 -2.563,1.868 -5.461,2.368 -8.743,1.52 -3.011,-0.781 -5.039,-2.285 -6.089,-4.496"
         style="fill:#dce0df;fill-opacity:1;fill-rule:nonzero;stroke:none"
         id="path30065" />
      <path
         d="m 996.363,730.781 -0.035,0.016 c 0,0 -0.012,-0.016 -0.023,-0.031 l 0.058,0.015"
         style="fill:#dce0df;fill-opacity:1;fill-rule:nonzero;stroke:none"
         id="path30067" />
      <path
         d="m 964.449,694.285 43.091,5.602 -0.62,4.793 -43.107,-5.594 0.636,-4.801"
         style="fill:#dce0df;fill-opacity:1;fill-rule:nonzero;stroke:none"
         id="path30069" />
      <path
         d="m 966.676,649.168 4.484,0.031 -0.113,17.696 17.058,0.128 0.118,-17.183 4.492,0.035 -0.117,17.18 12.912,0.078 0.13,-17.684 4.5,0.031 -0.17,22.528 -43.462,-0.297 0.168,-22.543"
         style="fill:#dce0df;fill-opacity:1;fill-rule:nonzero;stroke:none"
         id="path30071" />
      <path
         d="m 965.188,623.941 -0.887,-4.765 32.922,-6.113 -41.051,-26.84 44.658,-8.321 0.88,4.766 -33.093,6.16 41.113,26.824 -44.542,8.289"
         style="fill:#dce0df;fill-opacity:1;fill-rule:nonzero;stroke:none"
         id="path30073" />
      <path
         d="m 982.574,553.684 c -2.922,1.093 -5.441,1.043 -7.578,-0.149 -2.148,-1.199 -4.191,-2.793 -6.141,-4.765 l -2.074,-2.047 c -0.058,-0.051 -0.105,-0.11 -0.144,-0.149 -0.043,-0.039 -0.098,-0.105 -0.157,-0.168 -1.519,-1.519 -3.097,-2.793 -4.726,-3.828 -1.633,-1.055 -3.602,-1.14 -5.895,-0.262 -2.3,0.86 -3.871,2.43 -4.714,4.688 -0.856,2.258 -0.864,4.48 -0.028,6.66 0.832,2.195 2.262,3.75 4.293,4.668 2.039,0.906 4.164,1.102 6.391,0.586 l 0.39,4.922 c -3.402,0.527 -6.488,0.051 -9.253,-1.477 -2.77,-1.531 -4.774,-3.953 -6.008,-7.222 -1.344,-3.5 -1.301,-6.985 0.14,-10.383 1.446,-3.399 3.938,-5.781 7.5,-7.149 3.227,-1.218 6.028,-1.191 8.368,0.125 2.343,1.301 4.621,3.079 6.82,5.266 l 2.152,2.266 c 0.199,0.214 0.418,0.449 0.653,0.683 0.242,0.235 0.484,0.469 0.738,0.723 1.012,0.906 2.137,1.711 3.398,2.363 1.254,0.645 2.582,0.711 3.985,0.176 1.867,-0.703 3.129,-1.965 3.785,-3.75 0.652,-1.785 0.633,-3.582 -0.039,-5.391 -0.657,-1.718 -1.586,-2.976 -2.766,-3.761 -1.176,-0.77 -2.598,-1.297 -4.266,-1.582 l 0.938,-4.442 c 2.402,0.305 4.484,1.16 6.269,2.578 1.797,1.407 3.125,3.242 3.985,5.52 1.14,3.008 1.211,6.012 0.223,8.992 -1.004,2.996 -3.086,5.098 -6.239,6.309"
         style="fill:#dce0df;fill-opacity:1;fill-rule:nonzero;stroke:none"
         id="path30075" />
      <path
         d="m 978.34,530.246 -0.004,0.039 c -0.023,-0.012 -0.031,-0.012 -0.055,-0.012 l 0.059,-0.027"
         style="fill:#dce0df;fill-opacity:1;fill-rule:nonzero;stroke:none"
         id="path30077" />
      <path
         d="m 932.75,521.934 38.59,-19.989 2.223,4.297 -38.586,20 -2.227,-4.308"
         style="fill:#dce0df;fill-opacity:1;fill-rule:nonzero;stroke:none"
         id="path30079" />
      <path
         d="m 941.277,464.594 0.008,0.008 c -0.023,0 -0.031,0 -0.055,0 l 0.047,-0.008"
         style="fill:#dce0df;fill-opacity:1;fill-rule:nonzero;stroke:none"
         id="path30081" />
      <path
         d="m 950.699,486.438 c -2.586,1.746 -5.054,2.265 -7.414,1.582 -2.351,-0.684 -4.711,-1.766 -7.039,-3.254 l -2.48,-1.524 c -0.078,-0.027 -0.145,-0.097 -0.192,-0.125 -0.051,-0.027 -0.105,-0.078 -0.183,-0.105 -1.832,-1.133 -3.649,-2.024 -5.477,-2.668 -1.824,-0.664 -3.758,-0.301 -5.797,1.086 -2.051,1.375 -3.226,3.242 -3.543,5.625 -0.312,2.379 0.18,4.558 1.489,6.519 1.308,1.926 3.058,3.117 5.246,3.547 2.179,0.438 4.304,0.137 6.363,-0.867 l 1.48,4.684 c -3.187,1.32 -6.312,1.542 -9.343,0.664 -3.039,-0.868 -5.539,-2.762 -7.493,-5.664 -2.097,-3.114 -2.836,-6.52 -2.207,-10.157 0.637,-3.64 2.532,-6.504 5.688,-8.64 2.863,-1.922 5.594,-2.52 8.172,-1.789 2.582,0.746 5.195,1.945 7.832,3.593 l 2.613,1.731 c 0.246,0.156 0.516,0.32 0.797,0.5 0.285,0.183 0.574,0.359 0.871,0.515 1.191,0.696 2.481,1.211 3.848,1.551 1.375,0.363 2.679,0.129 3.929,-0.722 1.657,-1.114 2.602,-2.618 2.829,-4.532 0.234,-1.883 -0.18,-3.621 -1.25,-5.222 -1.036,-1.536 -2.211,-2.539 -3.543,-3.039 -1.329,-0.497 -2.832,-0.692 -4.516,-0.567 l -0.094,-4.558 c 2.41,-0.235 4.637,0.125 6.688,1.093 2.078,0.957 3.781,2.473 5.125,4.473 1.804,2.684 2.562,5.598 2.257,8.73 -0.296,3.133 -1.847,5.645 -4.656,7.54"
         style="fill:#dce0df;fill-opacity:1;fill-rule:nonzero;stroke:none"
         id="path30083" />
      <path
         d="m 447.852,879.559 c 1.953,0 3.527,1.582 3.527,3.523 0,1.961 -1.574,3.547 -3.527,3.547 -1.95,0 -3.528,-1.586 -3.528,-3.547 0,-1.941 1.578,-3.523 3.528,-3.523"
         style="fill:#dce0df;fill-opacity:1;fill-rule:nonzero;stroke:none"
         id="path30085" />
      <path
         d="m 895.684,886.578 c -1.957,0 -3.536,-1.582 -3.536,-3.523 0,-1.95 1.579,-3.532 3.536,-3.532 1.937,0 3.527,1.582 3.527,3.532 0,1.941 -1.59,3.523 -3.527,3.523"
         style="fill:#dce0df;fill-opacity:1;fill-rule:nonzero;stroke:none"
         id="path30087" />
      <path
         d="m 448.941,441.137 c -1.953,0 -3.527,-1.574 -3.527,-3.528 0,-1.964 1.574,-3.523 3.527,-3.523 1.954,0 3.532,1.559 3.532,3.523 0,1.954 -1.578,3.528 -3.532,3.528"
         style="fill:#dce0df;fill-opacity:1;fill-rule:nonzero;stroke:none"
         id="path30089" />
      <path
         d="m 899.211,442.375 c -1.953,0 -3.527,-1.602 -3.527,-3.547 0,-1.941 1.574,-3.515 3.527,-3.515 1.945,0 3.531,1.574 3.531,3.515 0,1.945 -1.586,3.547 -3.531,3.547"
         style="fill:#dce0df;fill-opacity:1;fill-rule:nonzero;stroke:none"
         id="path30091" />
      <path
         d="m 861.371,368.898 0.035,16.895 -15.84,0.051 v 42.371 c 72.356,54.004 115.528,140 115.528,230.199 0,90.227 -43.199,176.242 -115.582,230.234 v 29.555 h 10.781 v 4.235 h -10.781 v 27.433 h -4.375 v -17.367 l -52.668,28.777 v 24.457 h -3.434 V 961.07 l -54.922,-24.996 v 30.281 h 5.008 v 15.536 h -8.418 c -5.812,12.48 -19.137,21.889 -35.828,26.019 183.402,-9.289 329.755,-161.433 329.755,-347.113 0,-122.281 -63.536,-229.926 -159.259,-291.899 z m -4.199,0.215 h -36.746 v 12.481 h 36.746 z m -73.918,-37.871 c 4.797,5.332 15.351,17.071 16.332,18.446 2.644,3.734 3.594,9.66 -1.691,15.199 h 57.222 c -22.39,-13.832 -46.488,-25.149 -71.863,-33.645 z m -3.332,17.196 c -2.047,1.64 -4.442,2.539 -6.961,2.699 l 13.059,13.75 h 4.195 c 1.41,-0.395 3,-1.223 4.605,-2.903 4.164,-4.328 2.625,-8.015 1.325,-9.836 -0.571,-0.8 -5.969,-6.863 -11.426,-12.957 -0.199,3.575 -1.922,6.946 -4.797,9.247 z m -2.438,-16.954 c -2.589,-2.691 -6.453,-4.453 -9.816,-4.453 -4.676,0 -11.645,2.578 -18.387,5.051 -1.855,0.676 -3.672,1.34 -5.453,1.941 l 11.793,12.786 c 0.492,0.527 4.766,5.285 4.567,9.921 -0.071,1.766 -0.801,3.348 -2.106,4.532 -1.457,1.347 -3.008,2.566 -4.488,3.625 h 26.812 l -14.777,-15.746 c -1.469,-1.063 -2.641,-2.508 -3.301,-4.246 -0.336,-0.899 -0.512,-1.817 -0.558,-2.747 1.414,0.137 2.82,0.11 4.238,0.063 0.039,0.398 0.129,0.801 0.277,1.211 0.668,1.766 2.289,3.035 4.313,3.433 2.437,0.403 4.785,-0.195 6.687,-1.707 1.938,-1.574 3.16,-3.933 3.246,-6.355 0.114,-3.305 -1.582,-5.805 -3.047,-7.309 z M 674.863,313.273 c 4.907,7.461 11.325,17.149 13.071,19.676 5.125,1.914 20.113,2.602 22.82,2.668 12.859,0.274 21.293,-2.012 28.996,-4.648 l 1.598,-0.547 c 2.09,-0.703 4.273,-1.504 6.48,-2.317 3.996,-1.464 8.047,-2.937 11.813,-3.972 -27.137,-6.973 -55.539,-10.723 -84.778,-10.86 z m -3.05,3.075 c -11.887,21.144 -11.989,21.211 -13.614,21.242 -2.355,0.34 -4.652,0.625 -6.886,0.879 v 7.383 h 10.011 l 0.067,4.023 h -10.078 v 15.012 h 45.398 c -2.809,-2.59 -6.18,-5.727 -6.832,-6.449 -3.59,-3.985 -3.691,-8.387 -0.285,-11.825 2.293,-2.265 5.773,-5.675 8.265,-8.086 -3.39,-0.371 -7.093,-0.859 -11.089,-1.523 -1.305,0 -1.399,-0.031 -14.957,-20.656 z m -84.739,7.668 c 3.895,1.015 8.114,2.57 12.278,4.089 2.211,0.813 4.398,1.614 6.503,2.317 l 1.586,0.547 c 7.7,2.617 13.758,4.648 26.59,4.375 5.481,-0.125 13.903,-0.567 23.149,-1.875 1.66,-2.746 7.316,-12.735 11.476,-20.137 -28.109,0.359 -55.437,4.004 -81.582,10.684 z m -17.367,7.468 c -1.465,1.504 -3.168,4.004 -3.047,7.309 0.086,2.422 1.305,4.781 3.246,6.355 1.918,1.532 4.309,2.11 6.692,1.707 2.031,-0.378 3.636,-1.667 4.308,-3.433 0.141,-0.363 0.223,-0.727 0.266,-1.098 1.426,-0.097 2.844,-0.113 4.262,-0.222 -0.043,0.937 -0.231,1.882 -0.575,2.793 -0.656,1.738 -1.824,3.183 -3.289,4.265 l -14.582,15.727 h 35.727 l -8.942,-8.293 2.875,-3.125 12.282,11.418 h 0.34 v -28.852 c -1.051,-0.34 -2.106,-0.699 -3.196,-1.062 l -1.57,-0.547 c -2.125,-0.711 -4.363,-1.524 -6.609,-2.344 -6.739,-2.473 -13.696,-5.051 -18.364,-5.051 -3.375,0 -7.23,1.762 -9.824,4.453 z m -7.234,7.707 c -5.469,6.094 -10.868,12.176 -11.434,12.957 -1.281,1.821 -2.832,5.508 1.328,9.836 1.61,1.692 3.231,2.508 4.637,2.903 h 4.152 l 13.078,-13.75 c -2.515,-0.176 -4.921,-1.059 -6.964,-2.715 -2.879,-2.285 -4.598,-5.656 -4.797,-9.231 z M 491,364.887 h 58.281 c -5.258,-5.539 -4.32,-11.465 -1.676,-15.199 1.024,-1.407 12.278,-13.954 16.805,-18.985 -25.941,8.574 -50.558,20.07 -73.41,34.184 z m -2.441,16.765 36.816,-0.058 -0.023,-12.481 h -36.731 z m -40.278,293.774 -0.058,-52.938 h -24.871 v 52.891 z M 483.07,776.48 c 4.891,6.676 9.879,12.133 14.606,16.086 v -44.714 c -4.117,11.039 -9.59,20.367 -14.606,28.628 z m -0.379,-69.23 c 0,0 0.059,0.457 0.125,1.223 0.512,8.058 6.485,20.461 14.86,32.297 v -173.2 h -14.985 z m -16.539,38.91 c 4.086,9.75 8.825,18.406 13.77,25.82 5.191,-8.574 10.367,-17.539 14.07,-28.48 -5.801,-8.203 -10.652,-16.59 -13.199,-23.879 -2.84,8.402 -7.77,18.012 -14.641,26.539 z m 12.305,-38.941 V 567.57 h -25.824 l 0.105,112.34 c 0,23.203 4.043,42.895 11.45,61.235 8.492,-11.176 13.921,-24.082 14.242,-32.481 -0.028,-0.473 0.027,-1.445 0.027,-1.445 z m 19.219,124.82 V 798.93 C 482.641,788 461.918,758.938 452.633,719.887 v 49.914 c 0.472,-0.863 1.351,-1.457 2.402,-1.457 1.543,0 2.797,1.254 2.797,2.793 0,1.531 -1.254,2.785 -2.797,2.785 -1.051,0 -1.93,-0.609 -2.402,-1.453 v 6.738 c 0.472,-0.848 1.351,-1.441 2.402,-1.441 1.543,0 2.797,1.242 2.797,2.757 0,1.555 -1.254,2.809 -2.797,2.809 -1.051,0 -1.93,-0.598 -2.402,-1.477 v 6.774 c 0.472,-0.863 1.351,-1.473 2.402,-1.473 1.543,0 2.797,1.27 2.797,2.793 0,1.547 -1.254,2.801 -2.797,2.801 -1.051,0 -1.93,-0.609 -2.402,-1.469 v 2.852 h -1.028 c 0.883,0.469 1.52,1.379 1.52,2.445 0,1.535 -1.25,2.789 -2.797,2.789 -1.539,0 -2.789,-1.254 -2.789,-2.789 0,-1.066 0.625,-1.976 1.508,-2.445 h -1.02 v -3.121 c -0.414,1.004 -1.41,1.738 -2.574,1.738 -1.543,0 -2.793,-1.254 -2.793,-2.801 0,-1.523 1.25,-2.793 2.793,-2.793 1.164,0 2.16,0.735 2.574,1.742 v -7.308 c -0.414,1.019 -1.41,1.742 -2.574,1.742 -1.543,0 -2.793,-1.254 -2.793,-2.809 0,-1.515 1.25,-2.757 2.793,-2.757 1.164,0 2.16,0.703 2.574,1.722 v -7.316 c -0.414,1.031 -1.41,1.75 -2.574,1.75 -1.543,0 -2.793,-1.254 -2.793,-2.785 0,-1.539 1.25,-2.793 2.793,-2.793 1.164,0 2.16,0.719 2.574,1.726 0,0 0.047,-84.297 0.036,-90.269 l -24.543,0.078 v 27.34 c 0.468,-0.86 1.359,-1.477 2.41,-1.477 1.535,0 2.793,1.242 2.793,2.793 0,1.535 -1.258,2.789 -2.793,2.789 -1.051,0 -1.942,-0.594 -2.41,-1.469 v 6.77 c 0.468,-0.859 1.359,-1.473 2.41,-1.473 1.535,0 2.793,1.254 2.793,2.789 0,1.551 -1.258,2.809 -2.793,2.809 -1.051,0 -1.942,-0.609 -2.41,-1.477 v 6.758 c 0.468,-0.863 1.359,-1.461 2.41,-1.461 1.535,0 2.793,1.243 2.793,2.793 0,1.535 -1.258,2.789 -2.793,2.789 -1.051,0 -1.942,-0.609 -2.41,-1.472 v 2.855 h -1.024 c 0.887,0.485 1.512,1.375 1.512,2.461 0,1.52 -1.25,2.774 -2.785,2.774 -1.543,0 -2.789,-1.254 -2.789,-2.774 0,-1.086 0.621,-1.976 1.507,-2.461 h -1.023 v -3.121 c -0.422,1.02 -1.406,1.738 -2.574,1.738 -1.543,0 -2.793,-1.254 -2.793,-2.789 0,-1.55 1.25,-2.793 2.793,-2.793 1.168,0 2.152,0.727 2.574,1.746 v -7.308 c -0.422,1.004 -1.406,1.742 -2.574,1.742 -1.543,0 -2.793,-1.258 -2.793,-2.809 0,-1.535 1.25,-2.789 2.793,-2.789 1.168,0 2.152,0.719 2.574,1.727 v -7.293 c -0.422,1.019 -1.406,1.738 -2.574,1.738 -1.543,0 -2.793,-1.254 -2.793,-2.789 0,-1.551 1.25,-2.793 2.793,-2.793 1.168,0 2.152,0.727 2.574,1.746 v -28.691 l -19.516,-18.106 3.141,-3.371 16.512,15.785 v -50.617 h -25.586 c -1.492,11.817 -2.317,23.793 -2.317,35.926 0,86.695 38.805,167.027 106.524,221.078 v -43.207 h -11.742 v -4.246 z m -11.43,-335.926 c 1.891,3.235 1.824,7.563 -0.152,11.008 -2.153,3.762 -6.149,5.93 -10.977,5.93 -3.262,0 -6.051,-0.649 -8.445,-1.781 1.457,8.75 -0.594,19.375 -6.535,23.617 -3.395,2.41 -7.344,3.336 -10.86,2.437 -3.027,-0.73 -5.425,-2.691 -6.953,-5.652 -1.605,-3.184 -1.508,-6.785 0.274,-9.656 1.687,-2.746 4.675,-4.36 8.015,-4.36 h 0.129 l -0.054,4.231 c -1.801,0.183 -3.559,0.808 -4.5,2.336 -0.997,1.597 -1.028,3.668 -0.094,5.504 0.961,1.875 2.367,3.058 4.187,3.496 2.285,0.558 5.051,-0.125 7.414,-1.785 5.524,-3.934 7.016,-18.489 2.653,-25.95 -0.016,-0.015 -2.383,-4.16 -2.383,-10.554 0,-3.789 3.734,-17.911 20.242,-18.067 h 0.223 c 6.164,0 11.742,2.313 16.133,6.66 1.195,1.192 2.218,2.461 3.113,3.778 v -49.969 c -57.508,45.918 -93.961,109.277 -103.692,180.918 h 1.012 c 0.277,-0.234 28.449,-23.77 30.742,-25.852 1.95,-1.773 4.16,-3.75 4.211,-10.086 0.024,-2.976 -1.449,-5.078 -2.676,-6.308 -2.394,-2.422 -5.652,-3.028 -7.808,-3.028 -2.164,0 -8.195,0.813 -8.395,6.739 -0.07,2.097 0.848,3.867 1.844,4.875 0.797,0.789 1.926,1.082 3.332,1.082 2.66,-0.137 3.387,-3.059 3.387,-3.633 l 4.23,-0.098 c 0.047,3.086 -2.324,7.727 -7.441,7.93 -2.594,0.078 -4.856,-0.676 -6.473,-2.285 -1.867,-1.867 -3.207,-4.688 -3.097,-8.027 0.273,-8.235 8.015,-10.833 12.613,-10.833 3.695,0 7.941,1.426 10.812,4.297 2.578,2.578 3.922,5.813 3.903,9.328 -0.063,7.547 -2.813,10.657 -5.606,13.184 -1.797,1.633 -18.383,15.816 -26.48,22.715 h 46.129 L 448.18,567.57 h -12.532 v -4.25 h 62.028 v -51.265 l -35.133,38.472 h -26.895 v -4.234 h 25.028 l 37,-40.512 v -3.34 c 0.39,-7.253 -2.446,-12.3 -6.078,-15.925 -2.512,-2.469 -6.825,-5.418 -13.168,-5.418 -0.055,0 -0.117,0.015 -0.184,0.015 -14.855,0.11 -16.062,13.782 -16.062,13.899 -0.036,2.586 0.343,7.39 3.429,10.527 2.141,2.18 5.34,3.289 9.504,3.289 4.477,0 6.508,-2.383 7.321,-3.808 1.234,-2.168 1.3,-4.832 0.16,-6.754 -1.039,-1.743 -3.102,-2.661 -5.379,-2.637 l -0.063,-4.231 c 4.133,-0.05 7.274,1.629 9.09,4.715 z M 325.492,660.797 c 0,184.316 144.235,335.508 325.77,346.803 -16.168,-4.26 -29.043,-13.522 -34.723,-25.709 h -8.703 v -15.536 h 5.301 v -30.367 l -54.922,25.078 v 24.672 h -3.43 v -24.437 l -53.004,-28.988 v 17.558 h -4.222 l 0.117,-27.433 h -10.387 v -4.235 h 10.387 V 884.965 C 427.289,830.094 386.918,747.543 386.918,658.414 c 0,-89.152 40.355,-171.691 110.758,-226.547 v -46.008 l -13.356,0.012 0.078,-16.758 C 388.867,431.137 325.492,538.676 325.492,660.797 Z m 343.731,334.508 h -7.246 v -4.235 h 7.246 v -9.179 h -47.996 c 7.601,13.808 26.578,23.349 47.996,24.019 z M 778.008,888.16 c -6.442,8.516 -17.141,16.688 -20.602,19.211 v 16.805 h -4.402 v -17.031 c -3.57,-2.536 -14.266,-10.379 -22.891,-18.559 v 29.617 h 10.867 v 4.235 h -10.867 v 8.992 l 47.895,21.793 z m 35.332,-104.5 c 0,-10.379 -3.098,-20.285 -8.906,-28.801 -1.922,-0.625 -4.887,-1.234 -7.168,-0.48 -13.11,4.402 -9.957,20.281 -8.442,27.918 l 0.281,1.488 c 1.188,6.32 -1.07,14.469 -5.597,20.285 -3.07,3.934 -6.848,6.227 -10.66,6.446 -9.414,0.593 -13.262,-3.106 -16.36,-6.086 l -0.383,-0.36 c -2.582,3.184 -8.152,9.047 -19.371,4.407 -10.539,-4.344 -11.64,-20.196 -11.191,-25.414 0.172,-2.098 -0.746,-3.575 -2.027,-5.594 -1.414,-2.258 -3.18,-5.051 -3.328,-9.313 -0.168,-4.062 2.007,-7.699 3.929,-10.898 1.879,-3.117 3.035,-5.25 2.231,-6.442 -1.422,-2.054 -2.965,-2.195 -5.485,-1.769 -6.289,7.836 -9.902,20.406 -9.902,34.613 0,28.219 22.969,51.188 51.187,51.188 28.227,0 51.192,-22.969 51.192,-51.188 z m -23.43,52.625 h -7.336 v 119 l 4.391,2.016 2.945,-1.617 z m 51.363,-4.246 v -5.172 c -7.074,-3.906 -18.984,-7.523 -34.476,-10.539 -4.707,6.43 -10.734,11.824 -17.727,15.711 z m 0,90.399 h -9.82 v -4.235 h 9.82 v -26.164 c -8.144,7.391 -17.335,12.777 -20.597,15.106 v 17.031 h -4.403 v -16.805 c -3.675,-2.683 -15.566,-11.742 -21.8,-20.82 v 66.644 l 46.8,-25.507 z m 0,-86.153 h -46.707 v 40.34 c 0,8.117 16.18,21.746 23.739,27.313 3.547,-2.54 14.527,-9.25 22.968,-17.36 z m 10.032,-185.394 c -0.043,-5.442 -1.094,-10.141 -2.266,-14.141 -6.125,3.074 -14.434,7.668 -15.992,9.723 -0.641,0.859 0.297,4.375 0.933,6.707 1.215,4.531 2.473,9.218 -0.109,12.293 -4.258,5.078 -8.578,6.379 -12.273,6.519 1.988,3.496 3.086,7.461 3.086,11.539 0,12.903 -10.504,23.422 -23.411,23.422 -12.898,0 -23.402,-10.519 -23.402,-23.422 0,-7.523 3.727,-14.593 9.781,-18.968 -1.23,-2.008 -2.246,-4.09 -2.48,-5.754 -0.645,-4.516 -1.715,-12.086 -4.902,-14.875 -1.211,-1.071 -2.61,-1.93 -3.977,-2.809 -0.57,-0.359 -2.016,-0.922 -2.352,-1.504 -0.347,-0.582 0.086,-1.051 0.411,-1.316 0.097,-0.082 0.128,-0.11 0.128,-0.11 0.27,-0.234 0.778,-0.66 1.606,-1.05 4.867,-2.715 15.969,-5.692 25.652,-6.118 -0.562,-2.644 -1.644,-6.851 -3.773,-13.468 -5.192,-16.036 -14.293,-31.676 -21.078,-40.957 -6.844,-9.375 -11.684,-13.59 -16.809,-18.047 l -1.973,-1.707 c -6.031,-5.301 -10.132,-9.317 -17.585,-17.188 -3.133,-3.32 -5.536,-7.383 -7.86,-11.277 -3.133,-5.324 -6.117,-10.332 -10.551,-12.992 -14.125,-8.426 -18.086,-20.25 -19.187,-25.567 -2.817,2.981 -6.863,7.403 -9.531,11.028 -3.864,5.234 -3.762,20.644 -1.661,33.156 1.024,6.133 1.739,12.82 2.454,20.301 7.183,3.703 11.699,16.296 14.863,27.168 2.16,7.351 8.476,16.582 12.144,18.964 4.567,2.969 15.473,15.551 21.797,24.379 5.629,7.86 9.668,20.629 10.821,24.535 6.187,-0.343 13.441,0.657 19.05,6.02 3.926,3.734 5.422,6.988 4.579,9.938 -1.043,3.64 -5.434,6.148 -13.864,7.886 -2.183,0.453 -3.847,0.895 -5.215,1.305 0.973,0.391 1.989,0.797 3.106,1.234 4.375,1.93 6.207,2.18 8.867,2.059 l 0.195,4.23 c -3.707,0.172 -6.179,-0.41 -10.672,-2.402 -5.312,-2.02 -9.191,-3.836 -9.718,-4.07 -0.703,-0.192 -1.43,-0.477 -2.321,-0.852 -3.359,-1.437 -9.222,-3.898 -20.699,-2.051 4.465,5.297 11.86,13.715 14.801,15.629 3.203,2.086 14.535,5.535 21.305,7.617 2.457,0.754 4.547,1.399 5.863,1.836 5.633,1.899 14.156,8.657 17.535,13.907 2.559,3.964 12.914,9.89 20.41,10.738 4.949,0.562 7.657,-0.375 8.707,-0.879 3.852,-14.707 13.575,-25.664 18.035,-30.691 0.872,-0.993 1.84,-2.086 2.028,-2.418 l 0.64,-1.051 c 12.364,-20.664 14.903,-31.231 14.864,-36.449 z m 9.16,58.98 h 0.039 V 600.18 c -0.481,0.652 -0.969,1.343 -1.477,2.039 -4.078,5.625 -9.156,12.633 -9.179,22.367 -0.008,1.019 0.703,3.07 1.504,5.469 1.636,4.765 4.101,12.043 4.171,20.804 0.051,6.711 -3.343,16.493 -10.011,29.004 v 64.274 c 8.672,-12.071 14.953,-25.754 14.953,-34.266 z m 0.238,69.149 c -5.254,-8.637 -11.039,-18.438 -15.191,-30.18 v 46.75 c 4.898,-3.996 10.101,-9.613 15.191,-16.57 z m 35.199,-100.977 h 24.672 v -55.555 h -24.613 z m -16.316,65.641 c 6.914,-18.09 11.93,-39.414 11.746,-62.739 L 891.441,567.57 H 864.73 c 0,0 0,133.645 0,142.266 0,8.637 6.36,22.672 14.856,33.848 z m -16.988,-21.43 c -2.555,7.289 -7.016,15.582 -12.825,23.797 3.707,10.941 8.887,19.91 14.075,28.469 4.957,-7.399 9.687,-16.071 13.773,-25.821 -6.875,-8.511 -12.183,-18.043 -15.023,-26.445 z M 845.566,487.617 c 0.95,-1.426 2.055,-2.812 3.356,-4.09 4.391,-4.347 9.969,-6.66 16.129,-6.66 h 0.219 c 16.511,0.156 20.168,14.297 20.242,18.086 0.035,2.07 -0.164,4.59 -0.926,7.117 0,0 -1.438,3.403 -1.457,3.418 -4.363,7.461 -2.871,22.016 2.668,25.95 2.348,1.66 5.105,2.343 7.402,1.785 1.821,-0.438 3.227,-1.621 4.18,-3.496 0.941,-1.836 0.902,-3.907 -0.09,-5.504 -0.934,-1.528 -2.594,-2.602 -4.496,-2.336 l -0.055,-4.231 h 0.121 c 3.348,0 6.329,1.614 8.024,4.36 1.785,2.871 1.883,6.472 0.265,9.617 -1.515,3 -3.918,4.961 -6.945,5.691 -3.512,0.899 -7.469,-0.027 -10.859,-2.437 -5.942,-4.242 -7.992,-14.867 -6.535,-23.617 -2.399,1.132 -5.184,1.781 -8.454,1.781 -4.816,0 -8.82,-2.168 -10.972,-5.93 -1.985,-3.445 -2.039,-7.773 -0.149,-11.008 1.797,-3.054 4.957,-4.715 8.922,-4.715 h 0.16 l -0.05,4.231 c -2.657,-0.031 -4.352,0.894 -5.383,2.637 -1.137,1.922 -1.078,4.586 0.164,6.754 0.808,1.425 2.848,3.808 7.308,3.808 4.165,0 7.375,-1.109 9.516,-3.289 3.086,-3.137 3.461,-7.941 3.418,-10.508 0,-0.136 -1.199,-13.808 -16.055,-13.918 -0.062,0 -0.129,-0.015 -0.183,-0.015 -6.344,0.015 -10.66,2.949 -13.164,5.418 -4.324,4.297 -6.321,8.769 -6.321,14.648 v 4.617 l 36.997,40.512 h 25.039 v 4.234 h -26.895 l -35.141,-38.472 v 51.265 h 62.036 v 4.25 H 896.02 l -0.047,50.684 48.558,0.078 c -9.043,-6.785 -27.82,-21.16 -29.613,-22.793 -2.805,-2.527 -5.547,-5.644 -5.602,-13.184 -0.035,-3.515 1.321,-6.75 3.891,-9.328 2.867,-2.871 7.109,-4.754 10.816,-4.754 4.59,0 12.415,3.055 12.68,11.29 0.117,3.339 -1.305,6.16 -3.172,8.027 -1.617,1.609 -3.804,2.363 -6.476,2.285 -5.106,-0.203 -7.293,-4.844 -7.242,-7.93 l 4.234,0.098 c -0.008,0.574 0.539,3.496 3.187,3.633 1.383,0 2.539,-0.293 3.325,-1.082 1,-1.008 1.996,-2.778 1.929,-4.875 -0.203,-5.926 -6.297,-7.207 -8.465,-7.207 -2.16,0 -5.414,1.074 -7.812,3.476 -1.231,1.25 -2.699,3.352 -2.672,6.328 0.047,6.336 2.258,8.313 4.215,10.086 2.031,1.868 34.336,25.868 34.336,25.868 h 1.871 C 943.418,545.559 904.59,478.664 845.566,433.527 Z m 14.938,94.719 V 567.57 h -14.938 v 10.489 c 3.555,0.136 10.469,0.925 14.938,4.277 z m -37.695,52.223 c 6.082,2.211 10.519,4.765 11.699,5.453 4.316,-2.809 10.148,-5.801 13.262,-7.332 -0.137,-0.414 -0.282,-0.879 -0.415,-1.278 -1.011,-2.941 -1.742,-5.105 -1.742,-6.832 0.035,-11.101 5.563,-18.699 10,-24.832 2.617,-3.625 4.891,-6.726 4.891,-9.265 0,-1.664 -0.586,-3.059 -1.777,-4.203 -3.043,-2.95 -9.317,-3.829 -13.161,-3.985 v 0.852 c -0.531,11.035 -3.836,28.375 -22.757,51.422 z M 802.23,373.273 c 1.368,2.571 1.379,5.469 0.032,8.633 -1.758,4.141 -3.625,7.324 -5.274,10.149 -0.472,0.808 -0.902,1.558 -1.32,2.285 h 30.309 l 0.043,-8.481 h -9.832 v -16.746 h -18.086 c 1.609,1.016 3.168,2.356 4.128,4.16 z m -91.71,-4.16 c 3.523,2.168 7.875,4.793 10.82,6.555 4.566,2.691 8.238,4.324 10.945,4.832 0.551,0.105 13.52,2.5 14.43,10.059 0.14,1.191 0.082,2.371 -0.078,3.515 h 28.722 c 0,-0.703 0.012,-1.426 0.012,-2.09 0.012,-2.898 0.016,-5.41 0.18,-7.082 0.125,-1.187 0.051,-2.918 -0.031,-4.754 -0.184,-4.226 -0.36,-8.574 1.429,-11.035 z m 5.464,-23.086 c 4.821,5.528 2.957,9.746 0.532,12.332 -1.926,2.043 -5.133,4.512 -7.926,6.528 h 32.644 l -4.382,-4.211 c -0.266,-0.266 -2.633,-2.863 -2.375,-6.067 0.097,-1.199 0.625,-3.007 2.625,-4.511 4.015,-3.133 5.316,-4.168 5.343,-4.188 l 2.672,3.262 c 0,0 -1.289,1.062 -5.433,4.266 -0.832,0.625 -0.961,1.164 -0.996,1.503 -0.094,1.125 0.898,2.485 1.16,2.778 l 6.933,6.629 c 1.891,-1.145 5.477,-3.465 8.449,-6.172 0.372,-0.363 1.516,-1.414 -0.089,-4.688 -1.039,-2.07 -2.598,-3.8 -2.621,-3.808 l -13.063,-14.141 c -7.363,2.473 -13.805,4.356 -26.41,4.024 -1.336,-0.032 -2.891,-0.079 -4.606,-0.184 3.047,2.539 6.563,5.516 7.543,6.648 z m -13.793,18.145 c 2.664,-1.77 8.551,-5.84 11.247,-8.711 1.921,-2.051 1.75,-3.914 -0.641,-6.66 -0.973,-1.113 -6.359,-5.617 -10.34,-8.875 -2.301,2.254 -7.031,6.851 -9.867,9.683 -0.719,0.727 -2.613,2.618 0.433,5.989 0.633,0.722 5.536,5.273 9.168,8.574 z m -171.64,162.891 7.816,-56.36 -12.183,-6.23 -12.86,56.347 z m -18.774,96.296 c -0.047,1.993 1.012,6.731 1.946,10.903 1.027,4.586 2.004,8.918 2.078,11.566 0.027,1.305 0.215,2.777 0.422,4.422 0.597,4.844 1.332,10.863 -0.586,17.445 -1.364,4.703 -4,17.434 -3.844,25.618 0.109,5.992 1.668,18.515 1.668,18.515 3.066,-0.203 11.809,-1.129 15.418,-2.836 3.793,-1.82 8.523,-7.59 12.957,-15.836 4.281,-7.965 0.582,-22.48 -0.648,-26.758 -2.461,-8.531 1.019,-16.839 3.871,-22.308 0.687,-1.383 1.461,-2.617 2.226,-3.86 2.485,-3.976 4.633,-7.417 3.688,-13.871 -1.11,-7.531 -0.504,-10.992 0.965,-19.336 0.433,-2.46 0.945,-5.343 1.515,-8.918 2.36,-14.988 -2.297,-24.207 -5.699,-30.925 -0.055,-0.117 -0.117,-0.235 -0.172,-0.352 -0.457,4.832 -2.25,9.27 -5.742,11.414 -5.258,2.434 -10.121,2.278 -13.524,-0.203 -1.171,3.809 -0.253,7.844 0.637,11.727 1.121,4.875 2.281,9.914 -1.277,13.734 -1.059,1.141 -2.41,2.012 -3.832,2.918 -1.41,0.93 -8.895,5.547 -10.227,9.547 -1,2.226 -1.762,4.777 -1.84,7.394 z m 21.754,188.582 c -3.242,-5.425 -5.601,-11.425 -6.836,-17.871 -13.879,2.758 -20.504,5.817 -24.664,8.231 v 19.14 c 7.278,-3.558 17.848,-6.742 31.5,-9.5 z m 27.145,24.344 h -7.352 V 955.68 l 2.953,1.621 4.399,-2.016 z m 20.422,-1.437 c 28.218,0 51.187,-22.969 51.187,-51.188 0,-15.941 -7.551,-31.043 -20.215,-40.699 l -16.523,8.984 c 1.086,0.957 2.988,2.399 2.988,2.399 0.164,-0.043 0.418,-0.145 0.762,-0.235 3.301,-1.05 12.094,-3.843 17.34,1.551 4.363,4.469 3.711,9.563 3.222,13.262 -0.273,2.199 -0.519,4.078 0.192,5.269 1.75,2.93 2.804,7.993 1.437,11.977 -0.769,2.27 -2.258,3.887 -4.308,4.687 -2.235,0.879 -2.809,1.598 -3.617,2.555 -0.5,0.629 -1.028,1.254 -1.825,1.899 -0.445,0.375 -1.203,2.242 -1.703,3.496 -1.183,2.929 -2.515,6.254 -5.109,7.57 -2.848,1.41 -5.692,0.238 -7.774,-0.641 -0.73,-0.296 -1.832,-0.769 -1.941,-0.8 -0.184,0.14 -0.559,0.687 -0.84,1.097 -1.223,1.805 -3.316,5.016 -8.262,4.625 -3.171,-0.14 -5.089,-1.679 -6.785,-3.043 -0.801,-0.644 -1.566,-1.238 -2.41,-1.675 -0.918,-0.458 -3.551,-0.629 -5.66,-0.754 -3.859,-0.25 -7.504,-0.485 -9.457,-2.164 -2.625,-2.254 -3.652,-6 -4.488,-9.012 -0.297,-1.067 -0.547,-2.024 -0.848,-2.684 -0.508,-1.078 -1.613,-1.722 -2.867,-2.488 -1.746,-1.035 -4.141,-2.461 -4.293,-5.539 -0.192,-3.539 3.625,-5.906 7.316,-8.184 1.797,-1.113 5.18,-3.773 5.18,-3.773 3.066,-3.059 4.473,-4.438 3.558,-10.082 -0.574,-3.512 -2.992,-3.903 -6.628,-4.094 -1.008,-0.062 -12.055,-1.234 -17.004,-4.434 -0.278,-0.175 -0.633,-0.41 -0.938,-0.593 -7.101,9.078 -10.875,19.968 -10.875,31.523 0,28.219 22.973,51.188 51.188,51.188 z m 7.347,69.09 c 3.778,-2.708 24.282,-18.047 24.692,-25.633 v -42.02 h -14.782 c -5.433,1.789 -11.23,2.778 -17.257,2.778 -5.512,0 -10.828,-0.833 -15.856,-2.336 v 40.023 c 1.051,8.559 16.434,22.203 23.203,27.188 z m 24.692,18.5 h -10.875 v -4.235 h 10.875 v -30.148 c -8.231,9.652 -17.254,16.297 -22.34,19.093 v 17.028 h -4.391 v -16.805 c -3.562,-2.609 -14.797,-11.164 -21.164,-19.976 v 65.828 l 47.895,-21.875 z m 50.703,-90.399 c -0.317,-0.469 -0.586,-0.937 -0.805,-1.457 -0.476,-1.113 -0.738,-2.352 -0.738,-3.621 0,-1.285 0.262,-2.512 0.738,-3.625 0.383,-0.895 0.93,-1.688 1.567,-2.445 0,0 2,-1.989 3.296,-2.477 -8.976,-4.375 -22.195,-8.012 -37.218,-10.156 -5.004,10.035 -12.91,18.34 -22.66,23.781 z m 7.785,0 c 2.809,0 5.09,-2.273 5.09,-5.078 0,-2.809 -2.281,-5.078 -5.09,-5.094 -2.809,0.016 -5.094,2.285 -5.094,5.094 0,2.805 2.285,5.078 5.094,5.078 z m 7.789,18.012 c 0.004,-0.141 -0.019,-0.25 -0.012,-0.375 0.364,-4.938 4.004,-8.496 9.551,-8.496 h 0.113 c 3.004,0.011 5.778,1.254 7.825,3.465 2.109,2.273 3.191,5.375 2.976,8.496 -0.441,6 -4.902,10.707 -10.922,12.086 h 0.098 c 0,8.011 -6.023,14.531 -13.418,14.531 v -4.231 c 4.941,0 8.949,-4.39 9.148,-9.875 -5.847,-0.191 -10.574,-3.199 -13.14,-7.824 -2.567,4.652 -7.297,7.668 -13.156,7.852 0.207,5.488 4.199,9.879 9.14,9.879 v 4.234 c -7.39,0 -13.402,-6.523 -13.402,-14.531 h 0.144 c -6.023,-1.383 -10.535,-6.071 -10.968,-12.09 -0.227,-3.106 0.847,-6.207 2.957,-8.484 2.047,-2.208 4.824,-3.446 7.836,-3.497 h 0.117 c 5.523,0 9.304,3.575 9.66,8.52 0.008,0.105 0.004,0.219 0.004,0.34 h -4.223 l 0.004,-0.043 c -0.219,-3.043 -2.914,-4.531 -5.531,-4.567 -1.832,0 -3.516,0.774 -4.766,2.102 -1.312,1.43 -1.988,3.371 -1.851,5.332 0.367,5 4.707,8.621 10.336,8.621 h 0.109 c 6.758,-0.062 11.465,-4.973 11.465,-11.941 v -13.27 h -40.016 c 2.957,22.875 33.942,71.477 41.879,83.606 7.984,-12.395 39.727,-62.641 42.817,-83.606 h -40.454 v 13.246 0 c 0,6.965 4.719,11.86 11.465,11.914 h 0.114 c 5.55,0 9.98,-3.679 10.335,-8.621 0.149,-1.941 -0.535,-3.886 -1.859,-5.297 -1.246,-1.363 -2.934,-2.117 -4.762,-2.129 h -0.066 c -2.805,0 -5.121,1.567 -5.34,4.559 0,0.051 0,0.063 0,0.063 z m 27.359,-65.668 c -12.718,2.383 -24.183,5.812 -34.843,10.582 l -0.02,0.047 c -0.125,-0.02 -0.246,-0.035 -0.387,-0.035 -0.121,0 -0.23,0.015 -0.332,0.035 l -0.019,-0.047 c -9.215,-4.121 -21.152,-7.668 -34.719,-10.27 -0.121,6.914 -1.527,13.516 -3.965,19.578 16.203,2.399 29.825,6.411 39.137,11.446 9.313,-5.035 22.938,-9.047 39.133,-11.446 -2.481,-6.16 -3.887,-12.855 -3.985,-19.89 z m 6.004,-35.211 c -4.589,-2.102 -3.492,-8.359 -2.656,-11.352 -3.898,-2.98 -15.465,-12.574 -16.371,-22.355 -2.062,-21.899 -13.352,-36.512 -19.031,-41.18 -4.848,-3.984 -8.789,-13.324 -8.098,-19.226 0.32,-2.836 1.195,-5.543 2.406,-8.118 l -0.398,0.313 c -0.863,-1.129 -1.742,-3.121 -2.524,-5.531 -1.226,1.722 -2.859,3.636 -4.828,5.109 l -11.593,49.383 -4.836,-1.18 c -3.063,3.949 -14.325,18.567 -16.473,21.934 -0.934,1.461 -1.219,3.48 -1.496,5.426 -0.402,2.851 -0.82,5.816 -3.223,7.617 -1.957,1.472 -5.363,7.558 -7.125,11.179 11.692,9.77 18.875,23.989 19.782,39.176 13.652,2.555 25.761,6.067 35.292,10.176 10.817,-4.688 22.387,-8.141 35.25,-10.457 0.504,-11.914 3.438,-22.609 8.344,-30.367 -0.82,-0.063 -1.629,-0.188 -2.422,-0.547 z m 52.789,47.484 c 2.762,-1.707 4.77,-5.672 5.95,-9.254 -6.207,1.036 -12.61,-1.14 -14,-1.812 l 1.847,-3.797 c 0.985,0.469 7.539,2.73 12.965,1.129 0,0 0.313,-0.266 0.348,-0.598 0.426,-4.855 1.254,-16.836 -0.352,-22.883 -0.336,-1.257 -0.453,-2.558 -0.465,-3.843 -3.074,0.234 -5.472,1.601 -7.949,3.121 -2.762,1.691 -5.613,3.445 -9.222,3.011 -3.024,-0.363 -5.086,-1.851 -6.895,-3.183 -1.938,-1.399 -3.484,-2.402 -5.957,-2.277 -0.113,0.363 -0.231,0.773 -0.336,1.066 v 0 c -0.012,0.035 -0.02,0.051 -0.031,0.082 -0.028,0.078 -0.063,0.172 -0.098,0.234 -0.094,0.266 -0.176,0.547 -0.277,0.739 -0.883,1.675 -2.793,6.613 -3.09,11.097 -0.16,2.352 0.336,8.825 0.789,13.403 l 0.031,-0.047 c 0.008,0.015 1.188,0.722 4.235,0.722 2.492,0 5.207,0.094 6.351,-1.461 0.336,-0.437 0.985,-2.062 0.68,-3.589 -1.137,-5.735 -2.762,-11.5 -3.543,-12.961 0,0 3.68,-0.129 4.523,-0.157 0.336,1.192 3.032,11.786 3.067,11.879 0.922,3.075 0.273,5.852 -0.664,7.09 -2.223,2.992 -7.125,3.434 -10.414,3.434 -1.539,0 -2.743,-0.156 -3.707,-0.363 0,0.031 0.003,0.078 0.019,0.109 0.586,2.855 1.606,6.211 6.176,9.848 4.172,3.289 14.066,2.929 20.019,-0.739 z m -22.828,-44.617 c 3.356,0.141 5.621,1.758 7.516,3.133 1.598,1.164 2.984,2.164 4.937,2.402 2.137,0.266 4.086,-0.926 6.532,-2.418 2.734,-1.672 6.093,-3.699 10.574,-3.808 0.191,-0.828 0.437,-1.629 0.738,-2.395 0.016,0 0.031,0 0.055,0 0.363,-1.426 0.937,-3.922 1.187,-6.398 0.27,-2.664 -1.289,-8.465 -2.8,-14.078 -0.524,-1.961 -1.055,-3.95 -1.543,-5.899 -1.766,-7.035 -7.028,-12.883 -11.317,-15.027 -3.676,-1.852 -10.469,-2.262 -16.512,-1.02 -3.261,0.672 -3.664,3.106 -3.851,6.254 -0.031,0.438 -0.055,0.828 -0.094,1.145 -0.152,1.187 1.203,4.812 2.016,6.976 0.297,0.801 0.582,1.551 0.816,2.227 1.196,3.43 2.133,11.926 2.238,13.48 0.149,1.977 0.024,10.942 -0.492,15.426 z m -21.91,-78.07 c -7.781,2.117 -38.711,-16.461 -48.957,-22.809 -0.5,1.438 -0.879,2.899 -1.055,4.375 -0.519,4.469 2.872,12.43 6.59,15.488 0.731,0.594 17.813,14.938 20.543,44.032 0.785,8.312 11.93,17.281 15.043,19.644 2.09,-0.609 5.113,-1.426 8.903,-2.148 1.242,-0.235 2.351,-0.328 3.414,-0.356 0,0.028 0.004,0.078 0.004,0.106 0.679,-0.028 1.429,-0.043 2.238,-0.043 0.277,0 0.558,0 0.84,0.015 3.812,0.063 7.73,0.907 10.355,1.594 -0.387,-3.117 -1.043,-7.461 -1.703,-9.375 -0.227,-0.637 -0.496,-1.359 -0.781,-2.129 -1.481,-3.953 -2.512,-6.914 -2.258,-8.933 0.027,-0.254 0.051,-0.567 0.066,-0.914 0.164,-2.618 0.535,-8.715 7.196,-10.078 2.304,-0.489 5.136,-0.801 8.058,-0.801 3.914,0 7.981,0.566 11.164,2.179 4.985,2.481 11.336,9.11 13.5,17.747 0.485,1.929 1.012,3.886 1.532,5.816 1.035,3.859 2.543,10.098 2.543,10.098 1.871,0.738 6.492,2.664 10.703,2.648 4.422,0 8.836,-1.867 12.195,-3.695 4.996,-3.739 9.473,-6.668 13.187,-6.793 0.098,-0.547 0.254,-1.067 0.332,-1.614 0.071,-0.613 0.243,-1.175 0.34,-1.769 -1.953,0.453 -4.629,0.734 -8.273,0.324 -8.332,-0.957 -20.043,-7.16 -23.481,-12.648 -6.523,-10.395 -21.351,-14.067 -21.351,-14.067 -3.91,-1.203 -20.676,-7.097 -22.098,-8.023 -4.195,-2.711 -14.066,-14.438 -17.195,-18.235 -0.547,0.141 -1.02,0.204 -1.594,0.364 z m 23.766,-18.922 c -12.707,2.871 -23.25,-2.836 -31.395,-7.227 -0.793,-0.441 -1.789,-0.925 -2.957,-1.519 -6.164,-3.121 -16.012,-8.125 -22.668,-14.817 -3.289,2.602 -10.07,8.543 -13.965,15.789 16.844,10.454 41.34,23.75 46.161,22.602 17.183,-4.469 25.636,-0.797 29.707,0.957 0.757,0.297 1.476,0.629 1.847,0.676 1.406,0.265 2.43,-0.047 4.711,-0.719 1.637,-0.504 3.715,-1.113 6.692,-1.73 8.867,-1.832 10.41,-4.028 10.656,-4.907 0.347,-1.25 -0.863,-3.277 -3.442,-5.718 -7.718,-7.368 -19.628,-4.688 -25.347,-3.387 z M 614.512,398.098 c 5.621,0.664 9.156,-3.184 11.511,-5.735 0.856,-0.906 1.532,-1.629 2.231,-2.09 0.934,-0.574 2.312,-1.171 3.824,-1.812 4.926,-2.055 8.621,-3.906 7.801,-7.356 -0.524,-2.199 -8.965,-1.894 -12.164,-1.757 -1.121,0.039 -2.145,0.07 -2.992,0.078 -2.055,0 -4.481,2.969 -6.618,5.566 -1.753,2.149 -3.414,4.188 -5.3,5.321 -1.196,0.714 -2.606,2.66 -4.211,5.792 0.836,0.711 2.543,1.59 5.918,1.993 z m -24.844,2.293 c 0.039,0.238 3.691,22.765 5.25,40.148 1.211,13.524 0.082,21.211 -1.617,32.813 -0.551,3.73 -1.16,7.918 -1.793,12.871 -2.813,22.226 8.027,44.035 10.234,48.172 3.738,7.05 9.547,20.363 11.461,24.816 0.016,0 0.027,0 0.039,0 0.016,0.078 0.024,0.129 0.039,0.176 0.309,0.73 0.52,1.218 0.567,1.316 l -0.024,0.012 c 3.117,4.609 5.375,10.691 7.211,16.648 1.121,3.672 2.399,7.336 3.977,10.821 -1.344,-6.754 -2.805,-16.59 -3.192,-28.7 -0.48,-15.136 1.61,-19.211 3.137,-22.187 0.836,-1.613 1.332,-2.586 1.176,-5.363 -0.199,-3.465 -2.594,-6.93 -4.906,-10.282 -3.024,-4.375 -6.137,-8.879 -5.016,-14.011 0.504,-2.297 1.5,-5.176 2.652,-8.5 2.813,-8.133 6.668,-19.286 4.571,-27.032 -3.004,-11.082 -5.985,-26.519 -3.082,-37.214 2.046,-7.54 3.418,-27.2 3.921,-35.254 -2.597,1.797 -5.949,3.195 -10.257,2.644 -3.661,-0.406 -6.032,-1.414 -7.563,-2.508 -1.039,-0.359 -1.555,-1.047 -1.824,-1.816 -7.012,-6.777 -8.059,-6.375 -11.836,-4.895 l -0.508,0.188 c -3.086,1.211 -2.613,7.137 -2.617,7.137 z m 14.852,296.168 c -8.403,-10.332 -9.172,-16.301 -9.793,-21.082 -0.356,-2.704 -0.629,-4.832 -2.184,-7.418 -0.957,-1.567 -1.664,-2.903 -2.273,-4.09 -0.743,2.367 -1.598,5.156 -2.493,8.883 -1.359,5.66 -0.675,6.824 0.348,8.562 0.746,1.289 1.664,2.856 2.105,5.77 0.942,6.242 -3.585,20.41 -5.128,25.004 22.046,1.582 33.906,8.277 37.441,10.648 0.051,-0.348 0.102,-0.676 0.152,-1.023 0.258,-1.864 0.586,-3.887 1.442,-5.801 -2.297,-1.489 -9.071,-6.52 -19.617,-19.453 z m 6.257,-9.844 17.598,-71.192 12.41,3.153 c 1.012,-1.035 2.102,-2.024 3.258,-2.934 -2.652,-2.176 -13.676,-11.336 -17.566,-16.519 -4.618,-6.184 -7.293,-13.469 -9.082,-20.774 -1.36,-5.508 -4.153,-10.742 -6.211,-14.14 -3.153,6.882 -10.325,22.453 -11.719,24.316 -3.113,4.094 -7.36,9.707 -7.36,13.594 0,2.746 0.477,4.051 0.981,5.437 0.699,1.883 1.418,3.856 0.769,8.18 -0.652,4.41 -1.785,7.305 -2.988,10.367 -0.785,1.988 -1.597,4.043 -2.359,6.738 -0.969,3.418 0.461,7.262 1.863,10.957 1.078,2.903 2.192,5.879 2.192,8.75 0,1.582 -0.165,2.981 -0.422,4.356 h 0.023 c 0,0.019 0,2.273 3.992,8.879 2.02,3.34 2.395,6.254 2.766,9.043 0.566,4.48 1.219,9.562 8.883,18.969 10.179,12.496 16.636,17.257 18.574,18.543 3.449,-4.829 10.551,-14.063 13.973,-18.481 z m 38.133,-39.633 c -1.367,-1.066 -3.695,-3.512 -6.121,-6.191 l -11.437,46.5 15.195,3.714 9.859,-42.031 c -2.593,0.453 -5.16,-0.191 -7.496,-1.992 z m -15.312,-19.047 c 0.168,-0.265 1.668,-2.808 4.047,-5.785 l -6.184,-1.57 -15.566,62.945 11.351,2.773 12.145,-49.367 c -2.743,-3.164 -5.071,-5.968 -5.582,-6.601 l -0.942,-1.114 z m 30.425,-5.547 c -2.125,-2.121 -6.636,-6.097 -9.707,-6.445 -6.257,-0.691 -13.242,8.117 -16.285,12.871 3.625,4.34 10.961,12.871 13.473,14.828 1.457,1.129 2.855,1.524 4.379,1.16 3.918,-0.89 7.523,-6.472 8.773,-8.871 -0.91,-4.64 -1.293,-9.734 -0.633,-13.543 z m -1.937,-88.355 0.527,-3.125 c 1.762,-10.469 2.719,-17.793 0.153,-23.645 -1.715,-3.886 -3.965,-6.746 -6.328,-9.773 -3.696,-4.738 -7.528,-9.61 -9.598,-18.66 -3.227,-14.016 -3.719,-34.836 -1.02,-42.024 0.813,-2.148 2.2,-4.758 3.668,-7.5 0.063,-0.129 0.129,-0.254 0.2,-0.359 0.054,0 0.125,0 0.183,0 0.262,-0.5 0.59,-1.047 1.02,-1.762 1.785,-2.898 4.773,-7.754 3.617,-11.394 -0.559,-1.719 -2.051,-3.094 -4.567,-4.168 -2.089,-0.871 -13.921,-4.231 -21.921,-4.797 -0.692,9.504 -1.911,22.871 -3.594,29.062 -2.789,10.305 0.73,26.36 3.078,35.028 2.445,8.988 -1.649,20.832 -4.649,29.484 8.079,7.5 26.176,30.059 28.184,35.215 0.965,2.461 1.324,5.078 1.809,8.703 0.511,3.777 1.218,8.941 2.992,16.395 2.219,9.421 7.566,13.906 10.504,15.722 0.293,-7.98 -1.852,-12.273 -3.332,-15.129 -0.594,-1.14 -1.078,-2.117 -1.356,-3.008 -2.394,-7.871 -1.148,-15.117 0.43,-24.265 z m 2.539,53.957 c 0.641,-2.57 1.023,-4.824 1.313,-6.945 -2.829,-1.399 -11.157,-6.446 -14.208,-19.356 -1.812,-7.637 -2.542,-12.949 -3.07,-16.797 -0.469,-3.469 -0.785,-5.754 -1.551,-7.746 -1.546,-3.965 -17.296,-23.926 -25.746,-32.305 -0.441,1.352 -0.793,2.571 -1.019,3.606 -0.739,3.34 1.742,6.914 4.347,10.703 2.653,3.828 5.403,7.813 5.664,12.461 0.215,3.906 -0.675,5.664 -1.632,7.527 -1.321,2.539 -3.137,6.067 -2.684,20.102 0.656,20.515 4.258,35.633 5.074,38.844 4.528,5.109 14.379,13.234 16.68,15.113 1.863,-0.938 3.824,-1.52 5.836,-1.52 0.398,0 0.781,0.016 1.172,0.067 3.699,0.433 7.789,3.574 10.402,5.937 1.047,-4.89 0.34,-8.902 -0.422,-13.093 -0.89,-4.891 -1.793,-9.93 -0.156,-16.598 z M 550.641,732.551 c 3.261,-1.66 5.902,-1.754 9.242,-1.867 2.265,-0.079 4.836,-0.157 8.371,-0.715 3.816,-0.598 6.277,-2.321 8.648,-3.953 2.575,-1.786 5.239,-3.653 9.161,-3.653 0.347,0 0.707,0.032 1.07,0.063 7.5,0.613 11.922,6.051 15.48,10.441 l 0.938,1.145 c 2.957,3.574 8.922,4.308 8.976,4.324 l 0.543,0.078 0.106,0.063 c 1.336,-2.664 4.836,-9.282 7.726,-11.629 -1.586,-1.176 -15.574,-10.785 -45.273,-10.785 -0.242,0 -0.488,0 -0.727,0 -36.125,0.167 -50.742,12.914 -52.886,15.003 5.914,6.739 12.254,11.618 17.086,14.938 l 1.578,-3.496 c 0.187,-0.313 4.679,-7.305 9.961,-9.957 z m 25.652,16.902 c 2.012,-1.285 5.215,-2.211 8.555,-2.211 1.476,0 2.984,0.188 4.422,0.598 0.785,0.219 1.668,0.703 2.593,1.316 l 14.797,-8.058 c -2.18,-0.879 -4.59,-2.243 -6.363,-4.391 l -0.965,-1.191 c -3.211,-3.953 -6.844,-8.418 -12.547,-8.903 -3.058,-0.218 -4.945,1.114 -7.472,2.852 -2.637,1.851 -5.625,3.933 -10.411,4.687 -3.797,0.598 -6.601,0.688 -8.867,0.75 -3.148,0.129 -5.058,0.192 -7.496,1.426 -4.164,2.086 -8.125,8.172 -8.144,8.172 l -1.723,3.844 c 0.371,0.246 0.797,0.531 1.129,0.75 7.996,4.547 17.859,2.976 23.754,7.035 2.843,-2.254 7.234,-5.703 8.738,-6.676 z m -4.855,33.828 c 2.179,3.625 2.562,5.145 2.816,6.137 0.137,0.559 0.16,0.672 0.605,1.203 0.043,0.063 4.579,5.625 9.704,3.852 3.683,-1.27 6.105,-1.192 7.742,-1.157 0.777,0 1.328,0.016 1.66,-0.113 1.445,-0.547 1.797,-1.375 2.406,-3.035 0.52,-1.445 1.164,-3.246 2.988,-4.578 1.75,-1.274 3.571,-1.633 5.039,-1.93 1.957,-0.406 2.614,-0.562 3.063,-1.832 2.019,-5.644 -4.508,-15.648 -7.141,-18.953 -3.527,-4.094 -9.668,-10.227 -12.254,-10.992 -3.625,-1.067 -7.75,0 -9.496,1.144 -1.398,0.875 -6.144,4.625 -9.191,7.051 0.039,0.18 0.109,0.32 0.148,0.504 1.27,7.777 -1.386,10.41 -4.757,13.75 0,0 -0.778,0.688 -0.938,0.848 2.082,1.472 5.223,4.152 7.606,8.101 z m 44.23,-14.89 c 0.449,-3.481 0.875,-6.789 -2.051,-9.782 -3.097,-3.168 -9.054,-1.691 -12.125,-0.769 0.957,1.051 1.699,1.914 2.078,2.34 1.137,1.437 11.043,14.23 7.86,23.054 -1.27,3.575 -4.121,4.141 -6.203,4.567 -1.223,0.25 -2.379,0.48 -3.368,1.207 -0.75,0.547 -1.054,1.297 -1.523,2.586 -0.648,1.801 -1.543,4.277 -4.844,5.566 -1.129,0.418 -2.168,0.391 -3.289,0.375 -1.426,-0.031 -3.293,-0.062 -6.269,0.938 -6.305,2.164 -11.996,-2.254 -14.364,-5.192 -0.949,-1.172 -1.187,-1.89 -1.418,-2.836 -0.191,-0.75 -0.468,-1.894 -2.336,-4.965 -2.574,-4.281 -6.285,-6.82 -7.617,-7.636 -0.453,0.285 -0.898,0.582 -1.355,0.863 -1.887,1.156 -5.383,3.32 -5.324,4.371 0.039,0.707 0.527,1.113 2.234,2.133 1.551,0.926 3.469,2.07 4.519,4.312 0.395,0.829 0.735,2.008 1.114,3.356 0.676,2.461 1.519,5.516 3.164,6.941 0.879,0.754 4.547,0.993 6.969,1.149 3.007,0.183 5.593,0.34 7.285,1.191 1.25,0.625 2.265,1.442 3.152,2.149 1.426,1.156 2.547,2.05 4.332,2.129 2.539,0.191 3.484,-1.157 4.59,-2.79 0.797,-1.16 1.789,-2.617 3.601,-2.82 1.454,-0.172 2.891,0.426 4.286,1 1.898,0.801 3.211,1.27 4.265,0.75 1.164,-0.574 2.278,-3.332 3.082,-5.359 0.891,-2.192 1.66,-4.106 2.934,-5.172 0.558,-0.453 0.91,-0.895 1.262,-1.317 0.968,-1.191 2.078,-2.527 5.332,-3.796 0.875,-0.325 1.484,-1.036 1.855,-2.149 0.887,-2.601 0.137,-6.394 -1.074,-8.43 -1.457,-2.433 -1.094,-5.234 -0.754,-7.964 z M 557.621,598.762 c -0.769,3.574 -1.082,6.543 -1.523,8.984 -1.426,8.106 -1.953,11.149 -0.953,17.984 1.179,8.012 -1.594,12.446 -4.266,16.743 -0.711,1.148 -1.43,2.289 -2.074,3.543 -2.719,5.25 -5.586,12.199 -3.551,19.218 1.719,5.957 5.211,20.801 0.305,29.914 -3.485,6.489 -8.887,14.817 -14.871,17.653 -4.774,2.273 -15.165,3.121 -16.735,3.246 0.699,3.695 1.574,6.695 2.613,8.07 0.879,1.305 1.809,2.496 2.735,3.688 3.402,-3.246 18.902,-15.774 55.57,-15.977 h 0.77 c 1.754,0 3.429,0.051 5.086,0.106 1.785,-5.106 6.093,-19.059 5.324,-24.137 -0.321,-2.086 -0.922,-3.137 -1.571,-4.234 -1.546,-2.633 -2.437,-4.887 -0.824,-11.696 0.989,-4.078 1.93,-7.101 2.727,-9.625 1.176,-3.765 1.953,-6.254 1.953,-9.594 0,-2.121 -0.934,-4.609 -1.926,-7.261 -1.551,-4.157 -3.312,-8.836 -1.969,-13.586 0.817,-2.903 1.707,-5.164 2.489,-7.153 1.168,-2.949 2.168,-5.488 2.75,-9.437 0.48,-3.246 0.047,-4.453 -0.555,-6.082 -0.562,-1.52 -1.254,-3.414 -1.254,-6.91 0,-5.301 4.555,-11.321 8.223,-16.164 1.117,-1.461 2.187,-2.871 2.886,-3.973 0.274,-0.273 8.047,-17.91 9.715,-21.582 l -0.023,-0.027 c 0,0 0.074,-0.121 0.172,-0.305 0.058,-0.125 0.082,-0.156 0.109,-0.234 -2.215,-5.129 -7.515,-17.176 -10.906,-23.567 -2.07,-3.894 -7.024,-14.148 -9.59,-27.012 -4.527,3.958 -13.227,11.731 -16.703,16.313 -2.629,3.465 -3.418,5.906 -4.508,9.297 -0.816,2.515 -1.832,5.703 -3.91,9.969 -3.742,7.714 -9.883,13.242 -12.727,15.539 -0.195,0.781 -0.406,1.422 -0.675,1.738 0.55,1.043 1.086,2.098 1.589,3.074 0.883,1.746 9.817,16.27 6.098,33.477 z m 29.281,-188.828 c -10.285,1.179 -19.718,5.949 -23.429,8.046 -3.16,1.766 -4.883,4.969 -5.387,6.036 -0.719,4.168 -1.406,10.019 -1.098,17.058 0.157,3.664 0.309,6.328 0.438,8.606 0.242,4.226 0.418,7.285 0.418,13.008 0,3.964 -0.582,5.75 -1.465,8.496 -1.207,3.73 -3.035,9.394 -5.164,26.121 -2.621,20.668 -1.36,37.785 -0.434,50.293 0.125,1.789 0.25,3.418 0.352,5 0.062,-0.172 0.14,-0.301 0.199,-0.465 l -0.039,-0.039 c 0.055,-0.09 0.125,-0.239 0.172,-0.344 0.043,-0.109 0.035,0.938 -0.047,2.383 2.68,-2.649 5.922,-6.445 8.156,-11.035 1.946,-3.996 2.871,-6.883 3.692,-9.422 1.121,-3.496 2.089,-6.504 5.152,-10.539 4.363,-5.762 15.824,-15.696 19.223,-18.594 -0.84,-5.969 -1.11,-12.344 -0.282,-18.84 0.629,-5 1.246,-9.195 1.801,-12.945 1.719,-11.731 2.758,-18.801 1.586,-31.848 -0.933,-10.449 -2.633,-22.793 -3.844,-30.976 z m -18.089,-10.442 c 0.675,0.149 1.304,0.207 1.851,0.207 0.801,0 2.016,-1.687 2.227,-2.304 1.652,-4.825 1.175,-13.809 0.207,-15.391 -0.981,-1.426 -9.137,-4.551 -12.516,-2.715 -4.312,2.305 -4.375,4.309 -3.879,5.984 1.055,3.469 7.442,13.157 12.11,14.219 z m -12.325,9.895 2.516,-11.375 h -16.781 z m 16.426,-5.86 c -0.402,0.157 -0.82,0.293 -1.211,0.371 -4.754,0.821 -7.949,-1.816 -8.41,-2.003 -0.102,-0.106 -0.242,-0.204 -0.371,-0.282 l -3.027,13.731 c 0.476,-0.364 0.968,-0.703 1.511,-1.016 2.426,-1.367 7.184,-3.801 13.028,-5.781 z m -18.34,14.551 0.813,-3.691 -4.11,-3.274 -7.898,56.977 7.883,4.019 c 0.261,-0.879 0.511,-1.66 0.734,-2.351 0.832,-2.547 1.246,-3.82 1.246,-7.07 0,-5.594 -0.16,-8.426 -0.41,-12.747 -0.129,-2.3 -0.281,-4.976 -0.445,-8.679 -0.489,-11.192 1.383,-19.602 2.187,-23.184 z m -9.324,114.297 c -0.406,-10.203 -0.312,-22.168 1.398,-35.652 1.243,-9.778 2.395,-15.891 3.395,-20.063 l -7.332,-3.75 -7.738,55.742 z m 1.02,25.84 c 0.168,-0.305 0.355,-0.586 0.515,-0.867 -0.097,-2.7 -0.336,-5.864 -0.59,-9.407 -0.242,-3.242 -0.504,-6.777 -0.715,-10.586 l -11.148,-4.042 -1.711,12.292 c 4.422,3.704 10,8.594 13.649,12.61 z m -19.832,-1.516 1.343,-9.683 c -0.703,-0.559 -1.402,-1.145 -2.066,-1.672 l -1.246,3.574 c -0.02,0.059 -1.692,4.465 -1.129,9.453 0.246,2.109 1.441,3.926 2.832,5.996 1.687,2.539 3.59,5.43 3.949,9.375 l -0.16,0.02 c 2.949,3.34 7.953,1.629 9.887,0.769 2.629,-1.629 3.968,-6.59 3.597,-11.629 0.067,-0.117 0.153,-0.168 0.211,-0.273 0.117,-0.234 0.25,-0.418 0.371,-0.645 -2.609,-3.054 -7.273,-7.363 -12.078,-11.472 l -0.953,6.836 z m -1.418,18.125 c 0.375,-0.801 0.562,-1.472 0.656,-2.129 -0.535,-2.222 -1.711,-4.082 -2.988,-5.984 -1.551,-2.356 -3.145,-4.738 -3.504,-7.891 -0.676,-5.957 1.296,-11.172 1.347,-11.34 l 2.199,-6.316 3.266,-0.945 c 0.367,0.281 1.25,0.996 2.449,1.969 l 1.461,-10.477 -12.918,-4.68 v 79.153 l 0.114,0.109 c 1.394,-1.445 3.035,-2.523 4.464,-3.441 1.192,-0.75 2.317,-1.461 3.008,-2.207 1.942,-2.118 1.367,-5.133 0.266,-9.922 -1.11,-4.864 -2.391,-10.36 0.18,-15.899 z m 11.605,-176.812 h -19.637 v 86.082 z m -9.18,61.746 11.598,6.113 7.949,-57.422 -6.539,-6.086 z m 58.078,-61.465 h -8.511 c -0.035,0.137 -0.387,1.453 -0.582,2.391 l 2.008,6.652 c 2.507,-0.695 5.136,-1.211 7.847,-1.523 -0.449,-2.93 -0.75,-4.778 -0.762,-4.875 -0.015,-0.106 -0.093,-1.211 0,-2.645 z m 148.739,103.711 c 6.312,1.824 11.734,4.519 16.668,7.668 -1.02,-4.824 -1.746,-11.992 0.476,-19.074 5.426,-17.266 2.934,-41.203 1.758,-46.438 -0.93,-4.031 -4.137,-10.828 -5.226,-13.074 -0.27,-0.098 -0.559,-0.254 -0.868,-0.52 -3.218,0.891 -6.797,1.504 -10.754,1.504 -0.503,0 -1.019,0 -1.543,-0.027 -5.027,-0.203 -9.66,-1.066 -13.757,-1.855 -4.723,-0.911 -8.793,-1.641 -12.254,-1.25 -3.965,0.488 -8.055,1.25 -10.61,4.824 -3.031,4.258 -3.429,11.726 -1.203,22.285 5.578,26.445 12.004,38.672 37.313,45.957 z m 21.172,-10.137 c -2.934,9.297 0.097,19.278 0.879,21.571 2.625,1.992 5.125,4.074 7.531,6.203 -0.969,-5.039 -1.426,-11.797 1.269,-16.914 8.598,-16.243 11.996,-34.329 9.832,-52.317 -0.691,-5.73 -3.289,-25.027 -4,-30.254 -3.09,0.52 -6.609,2.453 -9.675,4.114 l -1.176,0.632 c -2.321,1.262 -5.16,2.766 -8.469,4.082 1.043,2.153 4.598,9.614 5.656,14.25 1.446,6.368 3.782,30.711 -1.847,48.633 z M 742.27,404.688 c -0.715,1.476 -2.407,9.132 3.433,17.316 1.231,1.726 2.09,2.871 2.692,3.664 3.867,-1.34 7.097,-3.059 9.687,-4.492 l 1.16,-0.61 c 3.719,-2.019 8.317,-4.531 12.656,-4.753 0.875,-1.844 2.188,-5.208 2.821,-9.622 0.344,-2.449 0.703,-5.945 0.769,-8.648 h -29.433 c -0.805,2.078 -2.407,4.684 -3.129,5.965 -0.266,0.469 -0.5,0.859 -0.656,1.18 z m -14.899,6.328 c -0.062,0.957 -0.121,1.996 -0.121,3.105 0,3.996 -1.492,9.348 -2.477,12.434 3.239,0.593 6.555,1.113 10.168,1.269 3.305,0.098 6.309,-0.293 9.079,-0.937 -0.524,-0.703 -1.09,-1.504 -1.75,-2.414 -7.012,-9.813 -5.024,-19.176 -3.774,-21.688 0.188,-0.344 0.442,-0.812 0.75,-1.347 1.399,-2.469 3.727,-6.614 3.274,-10.372 -0.379,-3.203 -7.344,-5.769 -10.993,-6.418 -3.242,-0.593 -7.281,-2.332 -12.339,-5.339 -4,-2.383 -10.59,-6.399 -14.2,-8.625 -0.332,1.718 -0.75,3.976 -1.05,6.242 -0.469,3.371 3.449,7.976 7.39,10.156 3.047,1.66 5.504,4.023 8.149,6.992 h 0.253 v 0.266 c 0.801,0.906 1.622,1.851 2.481,2.848 l 1.543,1.781 c 4.078,4.644 3.859,8.258 3.617,12.047 z m 98.453,14.836 0.137,-28.254 h -31.938 c -0.656,1.523 -1.078,2.98 -1.128,4.511 -0.157,4.551 5.539,18.672 8.253,24.946 1.524,-0.063 3.184,-0.032 5.137,0.203 3.985,0.488 7.266,1.816 9.836,4.004 1.899,-1.914 5.555,-4.961 9.703,-5.41 z m -14.078,62.011 c 2.555,-11.972 6.031,-38.308 6.074,-38.625 0.024,-0.078 1.2,-7.742 -2.722,-12.945 -2.039,-2.727 -5.172,-4.328 -9.317,-4.848 -3.785,-0.437 -6.402,-0.097 -9.172,0.293 -2.914,0.403 -5.925,0.805 -10.586,0.051 -4.011,-1.504 -5.3,-3.809 -6.554,-6.035 -0.852,-1.524 -1.676,-2.981 -3.539,-4.578 -0.192,-0.16 -0.418,-0.215 -0.621,-0.344 0.863,6.543 3.183,23.723 3.824,29.082 2.273,18.828 -1.278,37.781 -10.289,54.797 -3.516,6.656 -0.059,17.793 0.73,20.125 0.153,0.137 0.305,0.281 0.461,0.422 13.688,12.664 25.563,23.66 47.832,18.297 -0.383,-1.914 -0.797,-3.739 -1.219,-5.41 -3.859,-15.282 -7.855,-36.434 -4.902,-50.282 z m -5.695,143.164 c 2.195,0.098 4.371,0.348 6.469,0.707 2.23,-5.187 8.886,-21.523 9.433,-32.828 0.547,-11.363 -0.336,-32.636 -3.082,-49.715 -0.078,-0.5 -0.148,-0.968 -0.234,-1.464 -24.34,5.734 -37.52,-6.465 -51.481,-19.344 -9.629,-8.93 -19.574,-18.125 -34.058,-22.297 -11.422,-3.313 -19.282,-7.637 -25.035,-13.566 1.839,5.304 6.152,13.253 16.214,19.257 5.352,3.196 8.75,8.899 12.028,14.453 2.195,3.711 4.472,7.54 7.293,10.532 7.336,7.742 11.382,11.715 17.3,16.902 l 1.957,1.707 c 5.305,4.609 10.321,8.984 17.45,18.723 6.968,9.558 16.336,25.664 21.683,42.183 2.348,7.274 3.5,11.868 4.063,14.75 z m -9.883,18.075 c -0.941,-2.192 -1.715,-4.231 -0.672,-5.797 0.328,-0.485 1.074,-1.274 2.524,-1.274 h 0.082 l 0.996,0.035 c 3.707,0.043 8.757,0.122 11.609,4.235 2.059,2.961 3.609,4.293 4.504,4.844 v -0.176 c -0.023,-2.102 -0.055,-5.625 3.164,-7.114 1.645,-0.789 2.781,-2.277 4.922,-4.582 -5.168,-2.05 -11.942,-4.043 -18.863,-4.089 -9.524,-0.141 -18.371,2.394 -23.258,4.14 0.644,0.438 1.281,0.922 1.875,1.442 1.656,1.457 2.851,3.527 3.742,5.847 3.043,0.532 6.523,1.332 9.375,2.489 z m -6.816,9.113 c 0.351,2.539 4.664,8.418 6.246,9.937 2.179,2.082 3.293,6.239 2.601,9.645 -0.519,2.586 -3.16,3.43 -5.285,4.121 -0.707,0.23 -1.902,0.594 -1.992,0.406 0.113,0.926 3.094,3.84 7.598,5.832 4.468,1.973 9.57,2.461 10.918,1.067 2.414,-2.477 1.445,-5.598 -0.313,-10.051 -1.219,-3.102 -2.379,-6.051 -1.121,-8.621 0.695,-1.442 2.07,-2.492 4.074,-3.086 1.527,-0.442 3.254,-0.223 5.07,0 4.04,0.547 8.59,1.14 13.481,-4.719 1.168,-1.383 0.117,-5.332 -0.731,-8.469 -1.085,-4.027 -2.121,-7.871 -0.214,-10.359 0.273,-0.348 0.664,-0.738 1.101,-1.148 -0.941,-0.516 -2.23,-1.176 -3.808,-1.895 -3.168,3.84 -3.586,5.313 -6.836,6.805 -0.672,0.332 -0.723,1.613 -0.7,3.246 0.008,1.609 0.032,3.824 -1.992,4.531 -2.051,0.719 -5.441,0.106 -10.215,-6.758 -1.515,-2.199 -4.589,-2.355 -7.648,-2.398 0.203,0.531 0.457,1.129 0.648,1.566 1.004,2.321 1.954,4.512 0.375,5.973 -1.55,1.441 -3.691,0.297 -4.609,-0.172 -2.074,-1.082 -5.02,-1.898 -7.871,-2.492 0.566,2.492 0.934,4.969 1.223,7.039 z m 23.121,33.957 c -3.629,3.726 -11.555,1.672 -15.649,-0.145 -3.75,-1.66 -10.672,-5.906 -10.101,-10.187 0.343,-2.461 2.863,-3.293 4.894,-3.953 0.77,-0.235 2.223,-0.707 2.446,-0.922 0.406,-1.977 -0.25,-4.66 -1.387,-5.758 -0.543,-0.516 -1.547,-1.707 -2.656,-3.148 -4.907,3.574 -7.915,9.343 -7.915,15.472 0,10.567 8.586,19.172 19.168,19.172 10.579,0 19.176,-8.605 19.176,-19.172 0,-4.34 -1.519,-8.527 -4.215,-11.914 -1.207,-0.156 -2.332,-0.281 -2.949,-0.109 -0.469,0.14 -1.265,0.453 -1.488,0.89 -0.442,0.915 0.465,3.215 1.262,5.219 1.648,4.172 3.89,9.914 -0.586,14.555 z M 689.98,498.344 c 3.743,-5.051 9.778,-11.352 12.125,-13.735 -4.21,-7.246 -6.878,-16.257 -9.296,-27.683 -2.512,-11.914 -1.891,-20.305 1.902,-25.606 3.848,-5.39 9.914,-6.132 13.535,-6.582 3.758,-0.461 7.93,0.254 12.328,1.082 0.887,-2.73 2.449,-8.047 2.449,-11.699 0,-1.219 0.067,-2.32 0.129,-3.355 0.223,-3.539 0.36,-5.676 -2.578,-9.028 l -1.554,-1.785 c -0.504,-0.586 -0.969,-1.113 -1.454,-1.66 h -63.324 c -0.797,-0.43 -5.543,0.012 -6.129,0.012 -0.441,0 -4.074,0.308 -5.593,0.222 -0.153,-0.078 -0.317,-0.156 -0.454,-0.195 l 0.012,-0.039 h -13.484 c -0.071,1.113 -0.164,2.645 -0.281,4.453 8.601,0.625 20.957,4.172 23.257,5.137 3.657,1.535 5.981,3.808 6.922,6.738 1.738,5.457 -1.875,11.356 -4.039,14.883 -0.492,0.781 -0.894,1.394 -1.035,1.766 l -0.121,-0.028 c -0.027,0.051 -0.055,0.106 -0.082,0.156 -1.402,2.618 -2.727,5.098 -3.434,6.973 -2.164,5.77 -2.043,25.574 1.176,39.602 1.875,8.14 5.238,12.429 8.805,17.007 2.433,3.098 4.941,6.313 6.871,10.715 3.039,6.875 1.98,15.125 0.148,26.016 l -0.535,3.144 c -1.539,8.946 -2.66,15.391 -0.555,22.305 0.215,0.692 0.614,1.426 1.067,2.305 2.351,4.531 6.289,12.121 1.972,29.648 -1.429,5.782 -0.632,10.164 0.211,14.817 0.954,5.246 1.934,10.652 -0.441,17.883 -1.738,5.265 0.531,16.66 2.629,21.32 4.258,-6.824 10.363,-12.211 13.644,-14.817 -3.597,-4.703 -5.418,-10.097 -3.484,-16.16 2.039,-6.433 4.379,-10.66 6.43,-14.41 3.398,-6.191 5.64,-10.281 4.527,-20.281 -0.699,-6.223 -1.254,-12.074 -1.773,-17.59 -0.899,-9.551 -1.68,-17.781 -2.914,-25.176 -1.68,-10.011 -3.051,-28.918 2.421,-36.355 z m 1.442,101.422 c -1.957,3.593 -4.18,7.66 -6.109,13.672 -4.266,13.363 17.535,24.363 26.832,29.082 1.207,0.597 2.246,1.128 3.48,1.804 7.539,4.074 16.879,9.141 28.035,6.602 1.512,-0.332 3.535,-0.801 5.86,-1.149 -1.352,-4.402 -5.094,-15.691 -9.969,-22.496 -6.547,-9.152 -16.985,-20.89 -20.664,-23.297 -4.86,-3.152 -11.606,-13.523 -13.891,-21.336 -1.375,-4.668 -5.062,-17.285 -10.269,-22.683 0.507,5.332 1.054,11.004 1.718,17.027 1.258,11.328 -1.511,16.399 -5.023,22.774 z m 125.215,193.785 c -1.203,6.601 -3.574,12.765 -6.891,18.344 13.633,2.726 24.219,5.894 31.527,9.421 v -19.128 c -5.175,-3.028 -11.914,-6.114 -24.636,-8.637 z m 0.66,-4.531 c 11.746,2.289 18.723,5.078 23.976,7.921 V 687.402 c -0.406,0.703 -0.769,1.379 -1.21,2.102 l -0.594,1.008 c -0.403,0.687 -1.207,1.593 -2.531,3.086 -4.844,5.472 -16.196,18.281 -18.27,34.957 -1.426,11.492 -8.141,20.347 -10.938,23.582 6.45,9.293 9.836,20.14 9.836,31.523 0,1.82 -0.093,3.59 -0.269,5.36 z M 795.93,750.363 c 1.215,-0.39 2.504,-0.55 3.754,-0.55 1.433,0 2.82,0.203 4.031,0.488 0.828,-0.879 6.512,-7.227 9.367,-16.254 -2.375,0.672 -8.316,4.949 -8.316,4.949 -0.364,0.27 -7.594,5.113 -16,5.313 -3.332,0.097 -7.832,-1.379 -10.344,-2.254 -0.004,0.297 0.051,0.656 0.019,0.906 -0.218,2.195 -0.66,4.344 -1.031,5.914 0.106,0 -0.222,1.176 -0.453,1.801 -0.105,0.39 -0.18,0.644 -0.187,0.687 l -0.055,-0.015 c -0.719,2.277 -0.91,4.754 -0.309,6.996 1.715,6.457 1.039,18.023 0.465,24.359 -0.348,3.934 -3.137,13.86 -9.078,17.559 -1.98,1.207 -4.262,2.097 -6.637,2.695 2.43,2.07 5.407,3.672 11.434,3.359 2.582,-0.14 5.269,-1.886 7.598,-4.847 3.765,-4.828 5.73,-11.789 4.761,-16.914 l -0.269,-1.426 c -1.614,-8.137 -5.395,-27.184 11.25,-32.766 z m -68.192,9.078 c -1.691,2.801 -3.457,5.739 -3.34,8.543 0.122,3.137 1.368,5.121 2.696,7.227 1.453,2.305 2.957,4.687 2.652,8.215 -0.449,5.332 1.074,18.043 8.606,21.133 6.343,2.652 9.964,1.175 12.378,-0.957 -3.074,-0.391 -5.843,-1.348 -7.804,-2.918 -5.414,-4.293 -6.895,-8.43 -7.699,-12.274 -0.426,-2.07 -1.719,-15.238 -1.434,-19.203 0.332,-5.078 2.262,-10.019 3.262,-12.148 l -0.028,-0.016 c 0.016,-0.02 1.063,-1.633 1.512,-5.098 0.426,-3.277 0.598,-10.375 0.559,-13.625 -2.18,-0.64 -6.637,-1.785 -10.797,-1.863 -1.578,-0.051 -3.246,0.027 -4.071,0.078 -0.507,0.051 -0.968,0.063 -1.539,0.172 -3.566,0.672 -6.453,1.445 -8.421,2.023 -0.684,2.368 -1.165,5.942 0.257,6.598 1.008,0.442 2.559,0.129 4.207,-0.183 3.301,-0.645 7.793,-1.524 11.102,3.304 2.406,3.496 0.113,7.305 -2.098,10.992 z m 2.375,76.844 v 43.57 c 0,6.426 21.473,21.375 25.246,24.083 6.399,-4.711 21.313,-17.407 22.649,-25.981 v -41.23 c -5.035,1.503 -10.34,2.336 -15.86,2.336 -6.031,0 -11.82,-0.989 -17.261,-2.778 z m 5.114,-4.246 c -9.743,-5.441 -17.661,-13.746 -22.653,-23.781 -15.023,2.129 -28,5.832 -36.988,10.207 1.441,0.672 3.062,2.426 3.062,2.426 1.418,1.664 2.293,3.75 2.293,6.07 0,1.879 -0.566,3.621 -1.527,5.078 z m -117.153,90.399 v 43.917 h 107.098 v -43.917 h -9.024 v -4.235 h 9.024 v -81.918 h -6.582 c -3.145,23.567 -39.559,79.899 -44.789,87.895 v 21.386 h -4.934 v -21.503 c -5.554,-8.36 -40.769,-62.192 -43.812,-87.778 h -6.981 v 81.918 h 9.02 v 4.235 z m -63.898,-90.399 c -6.973,-3.871 -12.988,-9.25 -17.696,-15.66 -15.46,3.008 -27.347,6.644 -34.363,10.551 l -0.086,-0.125 v 5.234 z m -28.684,70.504 c 6.828,-5.027 22.852,-18.375 23.274,-27.191 v -39.067 h -46.735 v 47.098 c 8.504,8.23 19.856,16.57 23.461,19.16 z m -23.461,19.895 v 5.195 l 46.735,25.562 v -67.289 c -6.356,8.828 -17.653,17.449 -21.239,20.067 v 16.808 h -4.39 v -17.043 c -3.324,-2.367 -12.84,-9.32 -21.106,-16.883 v 29.348 h 10.114 v 4.235 z M 512.656,503.059 V 385.844 h -10.625 v 411.254 c 4.567,-2.371 11.574,-5.114 23.977,-7.559 -0.207,-1.945 -0.324,-3.887 -0.324,-5.879 0,-12.398 4.007,-24.097 11.566,-33.847 -6.762,-4.547 -16.465,-11.977 -24.125,-23.235 -4.996,-6.691 -5.551,-32.933 -5.562,-33.187 -0.161,-8.746 2.535,-21.821 4.019,-26.871 1.68,-5.75 0.992,-11.301 0.449,-15.75 -0.218,-1.79 -0.414,-3.407 -0.449,-4.832 -0.062,-2.223 -1.035,-6.571 -1.98,-10.754 -1.09,-4.844 -2.118,-9.442 -2.039,-11.93 0.152,-5.738 2.843,-10.852 5.093,-14.219 v -83.574 l -4.722,-1.707 z m 16.93,-133.946 0.023,16.68 -12.621,0.027 v 8.535 h 20.473 l 0.027,-0.125 0.145,0.125 h 19.359 c -2.242,-3.171 -3.847,-6.289 -4.324,-7.859 -0.926,-3.035 -0.648,-7.41 5.926,-10.918 1.312,-0.723 2.984,-1.023 4.781,-1.023 5.313,0 11.719,2.644 13.309,5.23 1.558,2.5 1.847,9.055 1.191,14.289 h 8.508 c 0.742,-1.965 2.051,-3.808 4.387,-4.707 l 0.5,-0.187 c 1.851,-0.731 3.378,-1.219 4.914,-1.219 2.554,0 5.148,1.328 9.296,5.078 1.786,-3.242 3.411,-5.281 5.129,-6.34 1.278,-0.761 2.774,-2.613 4.235,-4.375 2.73,-3.328 5.816,-7.105 9.879,-7.105 0.8,0 1.777,-0.039 2.832,-0.078 1.375,-0.051 2.879,-0.129 4.379,-0.129 5.437,0 11.015,0.754 12.054,5.129 1.727,7.207 -5.785,10.339 -10.277,12.222 -1.27,0.528 -2.422,1.008 -3.203,1.504 -0.047,0.024 -0.149,0.141 -0.227,0.207 h 83.293 c -1.379,-1.34 -2.769,-2.461 -4.289,-3.293 -5.176,-2.871 -10.285,-8.894 -9.539,-14.441 0.375,-2.727 0.883,-5.41 1.254,-7.227 z M 647.09,345.938 v -7.079 c -5.094,0.418 -9.574,0.625 -12.945,0.704 -9.301,0.285 -15.223,-0.696 -20.633,-2.227 v 27.551 h 26.258 l -12.68,-18.91 z m -12.301,3.937 10.094,15.012 h 2.207 v -15.012 z m 144.781,47.723 c 0,0 -0.261,6.32 -0.679,9.203 -0.586,4.168 -1.727,7.476 -2.676,9.707 0.848,0.34 1.66,0.797 2.437,1.453 2.457,2.07 3.594,4.109 4.508,5.723 1.11,1.992 1.778,3.203 3.93,4.043 3.601,0.554 6.207,0.203 8.949,-0.184 0.234,-0.031 0.461,-0.063 0.695,-0.09 -2.464,-5.793 -8.238,-19.933 -8.058,-25.48 0.054,-1.532 0.41,-2.965 0.887,-4.375 h -0.012 c 0,0 0.012,-0.02 0.015,-0.028 0.43,-1.054 2.879,-6.132 3.786,-7.656 1.57,-2.703 3.378,-5.762 5.027,-9.648 0.832,-1.985 0.875,-3.594 0.133,-4.993 -1.508,-2.839 -6.071,-4.296 -7.496,-4.578 -4.098,-0.371 -9.34,-0.105 -10.586,0.828 -1.016,0.793 -0.797,5.957 -0.688,8.457 0.086,1.973 -0.215,16.536 -0.172,17.618 z m 61.653,32.812 v -44.566 l -10.395,0.015 -0.191,40.332 c 4.476,0.782 8.047,2.207 10.586,4.219 z m -0.055,5.567 c -0.25,-0.309 -0.547,-0.586 -0.859,-0.829 -0.551,-0.644 -1.215,-1.21 -2.032,-1.601 -3.082,-2.305 -7.703,-3.234 -10.929,-3.555 -2.977,-0.41 -6.563,2.551 -8.426,4.461 4.418,6.602 3.129,15.078 3.082,15.402 -0.141,1.075 -3.531,26.758 -6.129,38.907 -2.176,10.176 -0.441,27.324 4.883,48.347 0.828,3.321 1.605,7.153 2.285,11.407 2.781,17.343 3.691,39.004 3.129,50.578 -0.551,11.601 -6.852,27.484 -9.442,33.586 0.594,0.133 1.184,0.293 1.766,0.465 22.164,-26.395 22.481,-44.977 22.617,-55.04 l 0.11,-142.144 c -0.012,0.016 -0.039,0.016 -0.055,0.016 z m 4.344,400.308 v 47.047 c 69.785,-53.316 111.359,-137.094 111.359,-224.918 0,-12.086 -0.816,-24.074 -2.351,-35.926 h -29.176 c 0,0 -0.184,30.5 -0.254,52.391 l 16.14,-15.004 3.133,3.355 -19.468,18.04 c -0.024,9.078 -0.036,28.757 -0.036,28.757 0.414,-1.007 1.407,-1.746 2.575,-1.746 1.535,0 2.793,1.258 2.793,2.793 0,1.539 -1.258,2.789 -2.793,2.789 -1.168,0 -2.161,-0.718 -2.575,-1.738 v 7.32 c 0.414,-1.015 1.407,-1.738 2.575,-1.738 1.535,0 2.793,1.238 2.793,2.793 0,1.531 -1.258,2.773 -2.793,2.773 -1.168,0 -2.161,-0.707 -2.575,-1.722 v 7.304 c 0.414,-1.019 1.407,-1.746 2.575,-1.746 1.535,0 2.793,1.258 2.793,2.809 0,1.523 -1.258,2.773 -2.793,2.773 -1.168,0 -2.161,-0.718 -2.575,-1.738 v 3.149 h -1.027 c 0.891,0.457 1.516,1.371 1.516,2.433 0,1.555 -1.25,2.793 -2.789,2.793 -1.543,0 -2.793,-1.238 -2.793,-2.793 0,-1.062 0.625,-1.976 1.507,-2.433 h -1.019 v -2.864 c -0.473,0.844 -1.359,1.453 -2.406,1.453 -1.539,0 -2.793,-1.25 -2.793,-2.773 0,-1.551 1.254,-2.809 2.793,-2.809 1.047,0 1.933,0.618 2.406,1.477 v -6.773 c -0.473,0.867 -1.359,1.46 -2.406,1.46 -1.539,0 -2.793,-1.242 -2.793,-2.773 0,-1.555 1.254,-2.793 2.793,-2.793 1.047,0 1.933,0.609 2.406,1.461 v -6.758 c -0.473,0.844 -1.359,1.453 -2.406,1.453 -1.539,0 -2.793,-1.25 -2.793,-2.789 0,-1.535 1.254,-2.793 2.793,-2.793 1.047,0 1.933,0.598 2.406,1.477 v -27.231 l -24.207,-0.062 c -0.008,0.578 -0.301,90.16 -0.301,90.16 0.422,-1.023 1.41,-1.742 2.574,-1.742 1.543,0 2.793,1.254 2.793,2.793 0,1.535 -1.25,2.793 -2.793,2.793 -1.164,0 -2.152,-0.727 -2.574,-1.746 v 7.304 c 0.422,-1 1.41,-1.738 2.574,-1.738 1.543,0 2.793,1.258 2.793,2.809 0,1.535 -1.25,2.773 -2.793,2.773 -1.164,0 -2.152,-0.723 -2.574,-1.723 v 7.29 c 0.422,-1.008 1.41,-1.727 2.574,-1.727 1.543,0 2.793,1.238 2.793,2.793 0,1.551 -1.25,2.785 -2.793,2.785 -1.164,0 -2.152,-0.719 -2.574,-1.738 v 3.137 h -1.023 c 0.886,0.453 1.507,1.367 1.507,2.445 0,1.523 -1.246,2.773 -2.789,2.773 -1.543,0 -2.793,-1.25 -2.793,-2.773 0,-1.078 0.629,-1.992 1.516,-2.445 h -1.019 v -2.852 c -0.477,0.844 -1.36,1.453 -2.411,1.453 -1.543,0 -2.793,-1.234 -2.793,-2.785 0,-1.555 1.25,-2.793 2.793,-2.793 1.051,0 1.934,0.613 2.411,1.457 v -6.758 c -0.477,0.863 -1.36,1.461 -2.411,1.461 -1.543,0 -2.793,-1.238 -2.793,-2.773 0,-1.551 1.25,-2.809 2.793,-2.809 1.051,0 1.934,0.609 2.411,1.477 v -6.758 c -0.477,0.844 -1.36,1.461 -2.411,1.461 -1.543,0 -2.793,-1.258 -2.793,-2.793 0,-1.539 1.25,-2.793 2.793,-2.793 1.051,0 1.934,0.613 2.411,1.457 v -49.945 c -8.649,39.378 -30.563,68.902 -45.633,79.496 v 30.148 h 11.808 v 4.246 z M 730.906,977.656 v -7.058 h -118.84 v 7.058 z m -57.465,13.414 h 7.844 v 4.235 h -7.844 v 10.625 c 21.641,-0.52 40.911,-10.094 48.575,-24.039 h -48.575 z m -0.375,21.52 c -193.972,0 -351.796,-157.817 -351.796,-351.793 0,-123.293 63.812,-231.906 160.097,-294.75 l 1.821,-1.16 c 54.816,-35.305 119.972,-55.891 189.878,-55.891 193.981,0 351.794,157.832 351.794,351.801 0,193.976 -157.813,351.793 -351.794,351.793"
         style="fill:#dce0df;fill-opacity:1;fill-rule:nonzero;stroke:none"
         id="path30093" />
    </g>
  </g>
</svg>
